<svg width="48" height="48" viewBox="0 0 48 48" fill="none" xmlns="http://www.w3.org/2000/svg">
<mask id="path-1-inside-1" fill="white">
<path fill-rule="evenodd" clip-rule="evenodd" d="M27.2672 3.60004C34.4232 3.60004 40.3584 9.35524 40.7808 16.5552C44.9384 17.648 48 21.5864 48 25.9776C48 31.2832 43.6832 35.6 38.3776 35.6H35.2C34.7576 35.6 34.4 35.2424 34.4 34.8C34.4 34.3576 34.7576 34 35.2 34H38.3776C42.8008 34 46.4 30.4008 46.4 25.9776C46.4 22.1288 43.592 18.6976 39.8672 17.9896C39.7584 17.9744 37.9016 17.7216 36.12 17.9912C36.08 17.9976 36.0392 18.0008 35.9992 18.0008C35.6104 18.0008 35.2696 17.7168 35.2096 17.3208C35.1432 16.884 35.4432 16.476 35.88 16.4096C37.1048 16.2232 38.3296 16.2528 39.1464 16.3104C38.6096 10.108 33.4632 5.20004 27.2672 5.20004C23.5104 5.20004 19.7336 7.10324 17.44 10.1032C19.0032 11.4248 20 13.3968 20 15.6C20 16.0424 19.6424 16.4 19.2 16.4C18.7576 16.4 18.4 16.0424 18.4 15.6C18.4 13.6304 17.3752 11.8984 15.8336 10.9C15.652 10.7824 15.464 10.6784 15.272 10.5832C15.2567 10.5758 15.2416 10.5684 15.2264 10.5609C15.1858 10.541 15.1453 10.5211 15.104 10.5024C14.8864 10.4032 14.664 10.3152 14.436 10.2456C14.422 10.2416 14.4078 10.2382 14.3936 10.2348C14.3794 10.2314 14.3652 10.228 14.3512 10.224C14.144 10.164 13.9336 10.1176 13.72 10.0824C13.6584 10.072 13.596 10.0616 13.5336 10.0536C13.2912 10.0216 13.0472 10 12.8 10C9.7128 10 7.2 12.5128 7.2 15.6C7.2 15.6603 7.2043 15.72 7.20859 15.7796C7.2092 15.788 7.20981 15.7964 7.2104 15.8048L7.2208 15.96L7.212 16.108C7.21134 16.1197 7.21066 16.1313 7.20999 16.1429C7.20498 16.2295 7.2 16.3154 7.2 16.4V16.904L6.7464 17.1208C3.764 18.5504 1.6 22 1.6 25.3232C1.6 30.108 5.492 34 10.276 34H14.4C14.8424 34 15.2 34.3576 15.2 34.8C15.2 35.2424 14.8424 35.6 14.4 35.6H10.276C4.6096 35.6 0 30.9896 0 25.3232C0 21.5192 2.2856 17.7184 5.6136 15.9048C5.6064 15.804 5.6 15.7032 5.6 15.6C5.6 11.6296 8.8296 8.40004 12.8 8.40004C13.0728 8.40004 13.3416 8.41844 13.6072 8.44804C13.6595 8.45367 13.7107 8.46226 13.7621 8.47086C13.7909 8.47569 13.8197 8.48052 13.8488 8.48484C14.0344 8.51284 14.2184 8.54404 14.3984 8.58484C14.4761 8.60225 14.5527 8.62303 14.6296 8.64389C14.6445 8.64795 14.6594 8.652 14.6744 8.65604C14.8424 8.70164 15.0072 8.75204 15.1696 8.80884C15.2616 8.84084 15.3528 8.87364 15.444 8.90964C15.608 8.97524 15.7688 9.04804 15.9272 9.12484C15.9533 9.13718 15.9798 9.1482 16.0063 9.15922C16.0416 9.17391 16.0769 9.18861 16.1112 9.20644C18.7168 5.73044 22.9232 3.60004 27.2672 3.60004ZM25.6001 41.6688L30.6345 36.6344C30.9473 36.3216 31.4529 36.3216 31.7657 36.6344C32.0785 36.9472 32.0785 37.4528 31.7657 37.7656L25.3665 44.1648C25.2929 44.2392 25.2041 44.2976 25.1057 44.3384C25.0081 44.3792 24.9041 44.4 24.8001 44.4C24.6961 44.4 24.5921 44.3792 24.4945 44.3384C24.3961 44.2976 24.3073 44.2392 24.2337 44.1648L17.8345 37.7656C17.5217 37.4528 17.5217 36.9472 17.8345 36.6344C18.1473 36.3216 18.6529 36.3216 18.9657 36.6344L24.0001 41.6688V25.2C24.0001 24.7576 24.3577 24.4 24.8001 24.4C25.2425 24.4 25.6001 24.7576 25.6001 25.2V41.6688Z"/>
</mask>
<path fill-rule="evenodd" clip-rule="evenodd" d="M27.2672 3.60004C34.4232 3.60004 40.3584 9.35524 40.7808 16.5552C44.9384 17.648 48 21.5864 48 25.9776C48 31.2832 43.6832 35.6 38.3776 35.6H35.2C34.7576 35.6 34.4 35.2424 34.4 34.8C34.4 34.3576 34.7576 34 35.2 34H38.3776C42.8008 34 46.4 30.4008 46.4 25.9776C46.4 22.1288 43.592 18.6976 39.8672 17.9896C39.7584 17.9744 37.9016 17.7216 36.12 17.9912C36.08 17.9976 36.0392 18.0008 35.9992 18.0008C35.6104 18.0008 35.2696 17.7168 35.2096 17.3208C35.1432 16.884 35.4432 16.476 35.88 16.4096C37.1048 16.2232 38.3296 16.2528 39.1464 16.3104C38.6096 10.108 33.4632 5.20004 27.2672 5.20004C23.5104 5.20004 19.7336 7.10324 17.44 10.1032C19.0032 11.4248 20 13.3968 20 15.6C20 16.0424 19.6424 16.4 19.2 16.4C18.7576 16.4 18.4 16.0424 18.4 15.6C18.4 13.6304 17.3752 11.8984 15.8336 10.9C15.652 10.7824 15.464 10.6784 15.272 10.5832C15.2567 10.5758 15.2416 10.5684 15.2264 10.5609C15.1858 10.541 15.1453 10.5211 15.104 10.5024C14.8864 10.4032 14.664 10.3152 14.436 10.2456C14.422 10.2416 14.4078 10.2382 14.3936 10.2348C14.3794 10.2314 14.3652 10.228 14.3512 10.224C14.144 10.164 13.9336 10.1176 13.72 10.0824C13.6584 10.072 13.596 10.0616 13.5336 10.0536C13.2912 10.0216 13.0472 10 12.8 10C9.7128 10 7.2 12.5128 7.2 15.6C7.2 15.6603 7.2043 15.72 7.20859 15.7796C7.2092 15.788 7.20981 15.7964 7.2104 15.8048L7.2208 15.96L7.212 16.108C7.21134 16.1197 7.21066 16.1313 7.20999 16.1429C7.20498 16.2295 7.2 16.3154 7.2 16.4V16.904L6.7464 17.1208C3.764 18.5504 1.6 22 1.6 25.3232C1.6 30.108 5.492 34 10.276 34H14.4C14.8424 34 15.2 34.3576 15.2 34.8C15.2 35.2424 14.8424 35.6 14.4 35.6H10.276C4.6096 35.6 0 30.9896 0 25.3232C0 21.5192 2.2856 17.7184 5.6136 15.9048C5.6064 15.804 5.6 15.7032 5.6 15.6C5.6 11.6296 8.8296 8.40004 12.8 8.40004C13.0728 8.40004 13.3416 8.41844 13.6072 8.44804C13.6595 8.45367 13.7107 8.46226 13.7621 8.47086C13.7909 8.47569 13.8197 8.48052 13.8488 8.48484C14.0344 8.51284 14.2184 8.54404 14.3984 8.58484C14.4761 8.60225 14.5527 8.62303 14.6296 8.64389C14.6445 8.64795 14.6594 8.652 14.6744 8.65604C14.8424 8.70164 15.0072 8.75204 15.1696 8.80884C15.2616 8.84084 15.3528 8.87364 15.444 8.90964C15.608 8.97524 15.7688 9.04804 15.9272 9.12484C15.9533 9.13718 15.9798 9.1482 16.0063 9.15922C16.0416 9.17391 16.0769 9.18861 16.1112 9.20644C18.7168 5.73044 22.9232 3.60004 27.2672 3.60004ZM25.6001 41.6688L30.6345 36.6344C30.9473 36.3216 31.4529 36.3216 31.7657 36.6344C32.0785 36.9472 32.0785 37.4528 31.7657 37.7656L25.3665 44.1648C25.2929 44.2392 25.2041 44.2976 25.1057 44.3384C25.0081 44.3792 24.9041 44.4 24.8001 44.4C24.6961 44.4 24.5921 44.3792 24.4945 44.3384C24.3961 44.2976 24.3073 44.2392 24.2337 44.1648L17.8345 37.7656C17.5217 37.4528 17.5217 36.9472 17.8345 36.6344C18.1473 36.3216 18.6529 36.3216 18.9657 36.6344L24.0001 41.6688V25.2C24.0001 24.7576 24.3577 24.4 24.8001 24.4C25.2425 24.4 25.6001 24.7576 25.6001 25.2V41.6688Z" fill="#1D2632"/>
<path d="M40.7808 16.5552L35.5506 16.8621L35.7732 20.6561L39.449 21.6223L40.7808 16.5552ZM39.8672 17.9896L40.8455 12.8426L40.7193 12.8187L40.5921 12.8009L39.8672 17.9896ZM36.12 17.9912L35.3361 12.8111L35.3142 12.8144L35.2923 12.8179L36.12 17.9912ZM35.2096 17.3208L40.3896 16.536L40.3892 16.5334L35.2096 17.3208ZM35.88 16.4096L36.6674 21.5893L36.6683 21.5891L35.88 16.4096ZM39.1464 16.3104L38.7779 21.5366L44.8948 21.968L44.366 15.8587L39.1464 16.3104ZM17.44 10.1032L13.2779 6.92117L10.2484 10.8837L14.0575 14.1041L17.44 10.1032ZM15.8336 10.9L18.6816 6.50257L18.6814 6.50245L15.8336 10.9ZM15.272 10.5832L17.5994 5.8894L17.5802 5.87991L17.561 5.87058L15.272 10.5832ZM15.2264 10.5609L12.9153 15.2628L12.9154 15.2628L15.2264 10.5609ZM15.104 10.5024L12.9307 15.2696L12.941 15.2742L12.9513 15.2789L15.104 10.5024ZM14.436 10.2456L15.9656 5.23476L15.9206 5.221L15.8753 5.20806L14.436 10.2456ZM14.3936 10.2348L15.6136 5.13971L15.6136 5.13971L14.3936 10.2348ZM14.3512 10.224L12.8939 15.2564L12.903 15.259L12.912 15.2616L14.3512 10.224ZM13.72 10.0824L12.8478 15.2485L12.8579 15.2502L12.8681 15.2519L13.72 10.0824ZM13.5336 10.0536L12.8479 15.2477L12.8576 15.249L12.8674 15.2503L13.5336 10.0536ZM7.20859 15.7796L12.4342 15.4033L12.4342 15.4031L7.20859 15.7796ZM7.2104 15.8048L12.4378 15.4545L12.4372 15.4452L12.4365 15.4358L7.2104 15.8048ZM7.2208 15.96L12.4507 16.271L12.4704 15.9403L12.4482 15.6097L7.2208 15.96ZM7.212 16.108L1.98207 15.7971L1.98132 15.8103L7.212 16.108ZM7.20999 16.1429L12.4404 16.4459L12.4404 16.4458L7.20999 16.1429ZM7.2 16.904L9.45928 21.631L12.4391 20.2068V16.904H7.2ZM6.7464 17.1208L4.48712 12.3939L4.48177 12.3964L6.7464 17.1208ZM5.6136 15.9048L8.1206 20.5052L11.0795 18.8928L10.8394 15.5316L5.6136 15.9048ZM13.6072 8.44804L13.0269 13.6549L13.0362 13.656L13.0454 13.657L13.6072 8.44804ZM13.7621 8.47086L12.8965 13.638L12.8965 13.638L13.7621 8.47086ZM13.8488 8.48484L14.6304 3.3043L14.6184 3.30253L13.8488 8.48484ZM14.3984 8.58484L13.2402 13.6944L13.2525 13.6971L14.3984 8.58484ZM14.6296 8.64389L13.2575 13.7002L13.2576 13.7002L14.6296 8.64389ZM14.6744 8.65604L16.0468 3.59982L16.038 3.59745L14.6744 8.65604ZM15.1696 8.80884L13.4399 13.7542L13.4484 13.7572L15.1696 8.80884ZM15.444 8.90964L17.3898 4.04521L17.3787 4.04079L17.3677 4.03642L15.444 8.90964ZM15.9272 9.12484L13.6415 13.8391L13.6629 13.8495L13.6844 13.8597L15.9272 9.12484ZM16.0063 9.15922L13.9943 13.9967L13.9944 13.9967L16.0063 9.15922ZM16.1112 9.20644L13.6941 13.8547L17.6375 15.9052L20.3033 12.3488L16.1112 9.20644ZM30.6345 36.6344L26.9298 32.9297L26.9298 32.9297L30.6345 36.6344ZM25.6001 41.6688H20.3609V54.3172L29.3047 45.3734L25.6001 41.6688ZM31.7657 36.6344L35.4703 32.9297L35.4703 32.9297L31.7657 36.6344ZM25.3665 44.1648L21.6618 40.4601L21.6518 40.4702L21.6418 40.4802L25.3665 44.1648ZM25.1057 44.3384L23.099 39.4987L23.092 39.5017L23.0849 39.5046L25.1057 44.3384ZM24.4945 44.3384L26.5152 39.5046L26.5081 39.5017L26.5011 39.4987L24.4945 44.3384ZM24.2337 44.1648L27.9583 40.4802L27.9483 40.4702L27.9383 40.4601L24.2337 44.1648ZM17.8345 37.7656L14.1298 41.4702L14.1298 41.4702L17.8345 37.7656ZM17.8345 36.6344L14.1298 32.9297L14.1298 32.9297L17.8345 36.6344ZM18.9657 36.6344L22.6703 32.9297L22.6703 32.9297L18.9657 36.6344ZM24.0001 41.6688L20.2954 45.3734L29.2392 54.3172V41.6688H24.0001ZM46.011 16.2484C45.4317 6.37473 37.2926 -1.63911 27.2672 -1.63911V8.83919C31.5538 8.83919 35.2851 12.3357 35.5506 16.8621L46.011 16.2484ZM53.2391 25.9776C53.2391 19.215 48.5814 13.1885 42.1126 11.4882L39.449 21.6223C41.2954 22.1076 42.7609 23.9579 42.7609 25.9776H53.2391ZM38.3776 40.8392C46.5767 40.8392 53.2391 34.1767 53.2391 25.9776H42.7609C42.7609 28.3897 40.7897 30.3609 38.3776 30.3609V40.8392ZM35.2 40.8392H38.3776V30.3609H35.2V40.8392ZM29.1609 34.8C29.1609 38.1359 31.8641 40.8392 35.2 40.8392V30.3609C37.6511 30.3609 39.6392 32.3489 39.6392 34.8H29.1609ZM35.2 28.7609C31.8641 28.7609 29.1609 31.4642 29.1609 34.8H39.6392C39.6392 37.2511 37.6511 39.2392 35.2 39.2392V28.7609ZM38.3776 28.7609H35.2V39.2392H38.3776V28.7609ZM41.1609 25.9776C41.1609 27.5073 39.9073 28.7609 38.3776 28.7609V39.2392C45.6943 39.2392 51.6392 33.2943 51.6392 25.9776H41.1609ZM38.8889 23.1366C40.0896 23.3649 41.1609 24.5917 41.1609 25.9776H51.6392C51.6392 19.666 47.0944 14.0304 40.8455 12.8426L38.8889 23.1366ZM36.9039 23.1714C37.3336 23.1064 37.8723 23.0945 38.3863 23.1175C38.8749 23.1394 39.195 23.1858 39.1423 23.1784L40.5921 12.8009C40.3966 12.7736 37.9087 12.4218 35.3361 12.8111L36.9039 23.1714ZM35.9992 23.24C36.3144 23.24 36.632 23.2151 36.9477 23.1646L35.2923 12.8179C35.528 12.7802 35.764 12.7617 35.9992 12.7617V23.24ZM30.0296 18.1057C30.4833 21.1001 33.0578 23.24 35.9992 23.24V12.7617C38.163 12.7617 40.0559 14.3335 40.3896 16.536L30.0296 18.1057ZM35.0926 11.23C31.7921 11.7317 29.5292 14.8139 30.03 18.1082L40.3892 16.5334C40.7572 18.9542 39.0943 21.2204 36.6674 21.5893L35.0926 11.23ZM39.5149 11.0843C38.5054 11.0131 36.8524 10.9622 35.0917 11.2301L36.6683 21.5891C37.3572 21.4843 38.1538 21.4926 38.7779 21.5366L39.5149 11.0843ZM27.2672 10.4392C30.6253 10.4392 33.6139 13.1474 33.9268 16.7622L44.366 15.8587C43.6053 7.06872 36.3011 -0.0391126 27.2672 -0.0391126V10.4392ZM21.6021 13.2853C22.9277 11.5515 25.1803 10.4392 27.2672 10.4392V-0.0391126C21.8405 -0.0391126 16.5395 2.65497 13.2779 6.92117L21.6021 13.2853ZM25.2391 15.6C25.2391 11.779 23.5039 8.36932 20.8225 6.10234L14.0575 14.1041C14.5025 14.4804 14.7609 15.0146 14.7609 15.6H25.2391ZM19.2 21.6392C22.5359 21.6392 25.2391 18.9359 25.2391 15.6H14.7609C14.7609 13.1489 16.7489 11.1609 19.2 11.1609V21.6392ZM13.1609 15.6C13.1609 18.9359 15.8641 21.6392 19.2 21.6392V11.1609C21.6511 11.1609 23.6391 13.1489 23.6391 15.6H13.1609ZM12.9856 15.2975C13.0438 15.3352 13.0908 15.3867 13.1205 15.4399C13.1463 15.4862 13.1609 15.5353 13.1609 15.6H23.6391C23.6391 11.7661 21.6388 8.41781 18.6816 6.50257L12.9856 15.2975ZM12.9446 15.2771C12.997 15.303 13.0051 15.3101 12.9858 15.2976L18.6814 6.50245C18.2989 6.25476 17.931 6.05385 17.5994 5.8894L12.9446 15.2771ZM12.9154 15.2628C12.9286 15.2693 12.9549 15.2822 12.983 15.2959L17.561 5.87058C17.5586 5.86942 17.5545 5.86738 17.5373 5.85896L12.9154 15.2628ZM12.9513 15.2789C12.92 15.2648 12.8989 15.2547 12.8939 15.2523C12.8912 15.2509 12.8909 15.2508 12.8947 15.2527C12.8991 15.2548 12.9043 15.2574 12.9153 15.2628L17.5374 5.85902C17.5097 5.84537 17.3911 5.78653 17.2567 5.72599L12.9513 15.2789ZM12.9064 15.2565C12.8859 15.2503 12.8773 15.2468 12.882 15.2486C12.8867 15.2504 12.9025 15.2567 12.9307 15.2696L17.2773 5.7353C16.9009 5.5637 16.4604 5.38578 15.9656 5.23476L12.9064 15.2565ZM13.1736 15.33C13.1853 15.3328 13.1649 15.3279 13.1399 15.3217C13.112 15.3146 13.061 15.3016 12.9967 15.2832L15.8753 5.20806C15.797 5.1857 15.7319 5.16892 15.6898 5.15836C15.6507 5.14855 15.6161 5.14031 15.6136 5.13971L13.1736 15.33ZM12.912 15.2616C12.9903 15.284 13.0553 15.3008 13.0974 15.3113C13.1365 15.3211 13.1711 15.3294 13.1736 15.33L15.6136 5.13971C15.6019 5.1369 15.6223 5.14174 15.6472 5.14799C15.6752 5.15501 15.7261 5.16808 15.7904 5.18644L12.912 15.2616ZM12.8681 15.2519C12.8973 15.2567 12.9041 15.2594 12.8939 15.2564L15.8085 5.19164C15.3838 5.06868 14.9699 4.9786 14.5719 4.91301L12.8681 15.2519ZM12.8674 15.2503C12.8504 15.2481 12.8369 15.2462 12.8278 15.2449C12.8188 15.2436 12.8131 15.2427 12.8117 15.2424C12.8105 15.2422 12.8122 15.2425 12.8185 15.2436C12.8251 15.2447 12.8336 15.2461 12.8478 15.2485L14.5922 4.9164C14.537 4.90709 14.3789 4.87998 14.1998 4.85702L12.8674 15.2503ZM12.8 15.2392C12.7713 15.2392 12.7588 15.2379 12.7668 15.2386C12.7753 15.2392 12.8002 15.2414 12.8479 15.2477L14.2193 4.85955C13.8335 4.80862 13.3479 4.76089 12.8 4.76089V15.2392ZM12.4391 15.6C12.4391 15.5069 12.4714 15.4225 12.5469 15.347C12.6225 15.2715 12.7069 15.2392 12.8 15.2392V4.76089C6.8193 4.76089 1.96085 9.61933 1.96085 15.6H12.4391ZM12.4342 15.4031C12.4336 15.3952 12.4333 15.3907 12.433 15.3867C12.4328 15.383 12.4327 15.3818 12.4327 15.382C12.4327 15.3823 12.4334 15.3923 12.4342 15.4081C12.4359 15.4389 12.4391 15.5079 12.4391 15.6H1.96085C1.96085 15.8798 1.98088 16.1268 1.98299 16.156L12.4342 15.4031ZM12.4365 15.4358C12.4356 15.4231 12.4348 15.411 12.4342 15.4033L1.98297 16.1559C1.98363 16.165 1.98397 16.1697 1.98426 16.1739L12.4365 15.4358ZM12.4482 15.6097L12.4378 15.4545L1.98297 16.1551L1.99337 16.3103L12.4482 15.6097ZM12.4419 16.419L12.4507 16.271L1.99089 15.6491L1.98209 15.7971L12.4419 16.419ZM12.4404 16.4458C12.441 16.4347 12.4418 16.4204 12.4427 16.4058L1.98132 15.8103C1.98083 15.8189 1.98031 15.8279 1.9796 15.8401L12.4404 16.4458ZM12.4391 16.4C12.4391 16.4299 12.4387 16.4538 12.4383 16.4702C12.4379 16.4866 12.4374 16.4974 12.4373 16.5006C12.4372 16.5036 12.4372 16.5019 12.4377 16.4922C12.4383 16.4815 12.439 16.4691 12.4404 16.4459L1.97961 15.8399C1.97618 15.8991 1.96085 16.1378 1.96085 16.4H12.4391ZM12.4391 16.904V16.4H1.96085V16.904H12.4391ZM9.00568 21.8478L9.45928 21.631L4.94072 12.1771L4.48712 12.3939L9.00568 21.8478ZM6.83915 25.3232C6.83915 24.0029 7.85828 22.3978 9.01103 21.8453L4.48177 12.3964C-0.330277 14.703 -3.63915 19.9972 -3.63915 25.3232H6.83915ZM10.276 28.7609C8.38582 28.7609 6.83915 27.2148 6.83915 25.3232H-3.63915C-3.63915 33.0012 2.59818 39.2392 10.276 39.2392V28.7609ZM14.4 28.7609H10.276V39.2392H14.4V28.7609ZM20.4391 34.8C20.4391 31.4641 17.7359 28.7609 14.4 28.7609V39.2392C11.9489 39.2392 9.96085 37.2511 9.96085 34.8H20.4391ZM14.4 40.8392C17.7359 40.8392 20.4391 38.1359 20.4391 34.8H9.96085C9.96085 32.3489 11.9489 30.3609 14.4 30.3609V40.8392ZM10.276 40.8392H14.4V30.3609H10.276V40.8392ZM-5.23915 25.3232C-5.23915 33.8826 1.71557 40.8392 10.276 40.8392V30.3609C7.50363 30.3609 5.23915 28.0967 5.23915 25.3232H-5.23915ZM3.10661 11.3044C-1.88621 14.0253 -5.23915 19.5794 -5.23915 25.3232H5.23915C5.23915 23.4591 6.45741 21.4116 8.1206 20.5052L3.10661 11.3044ZM0.360851 15.6C0.360851 15.9048 0.379767 16.1661 0.387766 16.2781L10.8394 15.5316C10.8381 15.5125 10.8374 15.5018 10.8369 15.4951C10.8365 15.4888 10.8366 15.4896 10.8369 15.4953C10.8374 15.5063 10.8391 15.5443 10.8391 15.6H0.360851ZM12.8 3.16089C5.9361 3.16089 0.360851 8.73613 0.360851 15.6H10.8391C10.8391 14.5231 11.7231 13.6392 12.8 13.6392V3.16089ZM14.1875 3.24112C13.7742 3.19507 13.3073 3.16089 12.8 3.16089V13.6392C12.8384 13.6392 12.909 13.6418 13.0269 13.6549L14.1875 3.24112ZM14.6276 3.3037C14.6003 3.29914 14.3987 3.26387 14.169 3.23909L13.0454 13.657C12.9728 13.6492 12.919 13.6412 12.8957 13.6377C12.8837 13.6359 12.8765 13.6347 12.8771 13.6348C12.8788 13.6351 12.8821 13.6356 12.8965 13.638L14.6276 3.3037ZM14.6184 3.30253C14.6351 3.30501 14.6459 3.30676 14.6468 3.30691C14.6474 3.30701 14.6466 3.30687 14.6432 3.30631C14.6395 3.30569 14.6353 3.30499 14.6276 3.3037L12.8965 13.638C12.9176 13.6416 12.9942 13.6545 13.0792 13.6671L14.6184 3.30253ZM15.5566 3.4753C15.1964 3.39366 14.8695 3.34039 14.6304 3.30431L13.0672 13.6654C13.1302 13.6749 13.1729 13.6819 13.2033 13.6874C13.2333 13.6927 13.2439 13.6952 13.2402 13.6944L15.5566 3.4753ZM16.0016 3.58761C15.9433 3.57178 15.7546 3.51967 15.5443 3.47253L13.2525 13.6971C13.2344 13.6931 13.2204 13.6897 13.2115 13.6876C13.2028 13.6854 13.198 13.6842 13.1986 13.6843C13.1994 13.6845 13.2037 13.6857 13.2139 13.6884C13.2189 13.6897 13.2248 13.6913 13.2322 13.6933C13.2397 13.6954 13.2476 13.6975 13.2575 13.7002L16.0016 3.58761ZM16.038 3.59745C16.028 3.59475 16.0173 3.59186 16.0015 3.58758L13.2576 13.7002C13.2716 13.704 13.2909 13.7093 13.3108 13.7146L16.038 3.59745ZM16.8993 3.86344C16.6058 3.76081 16.3207 3.67419 16.0468 3.59983L13.302 13.7122C13.3641 13.7291 13.4086 13.7433 13.4399 13.7542L16.8993 3.86344ZM17.3677 4.03642C17.1809 3.96272 17.0138 3.90327 16.8908 3.86048L13.4484 13.7572C13.4778 13.7674 13.4965 13.7741 13.5089 13.7786C13.5208 13.783 13.5238 13.7842 13.5203 13.7829L17.3677 4.03642ZM18.2129 4.41058C17.9734 4.29447 17.6964 4.16788 17.3898 4.04521L13.4982 13.7741C13.5196 13.7826 13.5642 13.8016 13.6415 13.8391L18.2129 4.41058ZM18.0182 4.32177C18.0001 4.31424 18.0161 4.32084 18.0369 4.32977C18.0609 4.34013 18.1087 4.361 18.17 4.39002L13.6844 13.8597C13.8436 13.935 13.9869 13.9936 13.9943 13.9967L18.0182 4.32177ZM18.5283 4.55817C18.2628 4.42013 18.0204 4.32269 18.0181 4.32175L13.9944 13.9967C14.0206 14.0076 13.9863 13.9935 13.9437 13.9748C13.8951 13.9533 13.8056 13.9127 13.6941 13.8547L18.5283 4.55817ZM27.2672 -1.63911C21.2521 -1.63911 15.5011 1.28546 11.9191 6.06403L20.3033 12.3488C21.9325 10.1754 24.5943 8.83919 27.2672 8.83919V-1.63911ZM26.9298 32.9297L21.8954 37.9641L29.3047 45.3734L34.3391 40.339L26.9298 32.9297ZM35.4703 32.9297C33.1115 30.5709 29.2886 30.5709 26.9298 32.9297L34.3391 40.339C32.6059 42.0722 29.7942 42.0722 28.061 40.339L35.4703 32.9297ZM35.4703 41.4702C37.8291 39.1114 37.8291 35.2885 35.4703 32.9297L28.061 40.339C26.3278 38.6058 26.3278 35.7941 28.061 34.0609L35.4703 41.4702ZM29.0711 47.8694L35.4703 41.4702L28.061 34.0609L21.6618 40.4601L29.0711 47.8694ZM27.1123 49.178C27.8141 48.887 28.4975 48.4493 29.0911 47.8493L21.6418 40.4802C22.0882 40.029 22.594 39.7081 23.099 39.4987L27.1123 49.178ZM24.8001 49.6391C25.6016 49.6391 26.3922 49.4791 27.1264 49.1721L23.0849 39.5046C23.6239 39.2793 24.2065 39.1608 24.8001 39.1608V49.6391ZM22.4737 49.1721C23.2079 49.4791 23.9985 49.6391 24.8001 49.6391V39.1608C25.3936 39.1608 25.9762 39.2793 26.5152 39.5046L22.4737 49.1721ZM20.509 47.8493C21.1026 48.4493 21.786 48.887 22.4879 49.178L26.5011 39.4987C27.0061 39.7081 27.5119 40.029 27.9583 40.4802L20.509 47.8493ZM14.1298 41.4702L20.529 47.8694L27.9383 40.4601L21.5391 34.0609L14.1298 41.4702ZM14.1298 32.9297C11.771 35.2885 11.771 39.1114 14.1298 41.4702L21.5391 34.0609C23.2723 35.7941 23.2723 38.6058 21.5391 40.339L14.1298 32.9297ZM22.6703 32.9297C20.3115 30.5709 16.4886 30.5709 14.1298 32.9297L21.5391 40.339C19.8059 42.0722 16.9942 42.0722 15.261 40.339L22.6703 32.9297ZM27.7047 37.9641L22.6703 32.9297L15.261 40.339L20.2954 45.3734L27.7047 37.9641ZM18.7609 25.2V41.6688H29.2392V25.2H18.7609ZM24.8001 19.1608C21.4642 19.1608 18.7609 21.8641 18.7609 25.2H29.2392C29.2392 27.6511 27.2512 29.6391 24.8001 29.6391V19.1608ZM30.8392 25.2C30.8392 21.864 28.1359 19.1608 24.8001 19.1608V29.6391C22.349 29.6391 20.3609 27.6511 20.3609 25.2H30.8392ZM30.8392 41.6688V25.2H20.3609V41.6688H30.8392Z" fill="black" mask="url(#path-1-inside-1)"/>
</svg>
