<svg width="40" height="40" viewBox="0 0 40 40" fill="none" xmlns="http://www.w3.org/2000/svg">
<path d="M39.9927 14C39.9267 12.8593 38.57 11.968 35.8567 11.288C35.948 11.088 35.9993 10.88 36 10.664V6H35.9887C35.75 2.11467 19.8287 2 18 2C16.1713 2 0.25 2.11467 0.0113333 6H0V6.08667V10.666C0.00333333 11.9327 1.638 12.924 4.07 13.662C4.03667 13.7727 4.01667 13.8853 4.01 14H4V14.0867V18.658C1.38 19.3327 0.0713333 20.2113 0.00666667 21.3333H0V21.42V25.9993C0.002 26.8813 0.797333 27.6293 2.09867 28.2527C2.04933 28.388 2.01867 28.526 2.01 28.6673H2V28.754V33.3333C2.00533 35.5507 6.998 36.9273 12.5453 37.57C12.586 37.578 12.6233 37.5947 12.6667 37.5947C12.6793 37.5947 12.69 37.588 12.7027 37.5873C13.772 37.708 14.8587 37.802 15.934 37.8693C15.9567 37.872 15.9767 37.8827 16 37.8827C16.0127 37.8827 16.0227 37.876 16.0347 37.8753C17.4 37.958 18.7433 38 20 38C21.2567 38 22.6 37.958 23.9653 37.8747C23.9773 37.8753 23.988 37.882 24 37.882C24.0233 37.882 24.0433 37.8707 24.066 37.8687C25.1413 37.8013 26.228 37.708 27.2973 37.5867C27.31 37.5867 27.3207 37.5933 27.3333 37.5933C27.3767 37.5933 27.414 37.5767 27.4547 37.5687C33.002 36.926 37.994 35.5487 38 33.3307V28.6667H37.9893C37.9427 27.8493 37.246 27.1673 35.87 26.5973C35.954 26.4047 36 26.2047 36 25.9973V21.64C38.3933 20.904 39.9967 19.9193 40 18.664V14H39.9927ZM34.5947 26.214L34.3673 26.4133C34.0173 26.722 33.434 27.0333 32.6667 27.3333V24.1547C33.4593 23.8787 34.134 23.5727 34.6667 23.2373V25.996C34.6667 26.0647 34.6413 26.138 34.5947 26.214ZM19.684 29.312C19.5867 29.3147 19.4887 29.316 19.3907 29.318C19.1527 29.3227 18.9087 29.324 18.6673 29.326V25.996C18.8507 25.994 19.034 25.9913 19.2173 25.988C19.2527 25.9873 19.288 25.9867 19.3233 25.986C19.9947 25.9733 20.666 25.9527 21.334 25.922V29.2507C21.1913 29.258 21.048 29.2647 20.9033 29.2707C20.502 29.2887 20.0967 29.302 19.684 29.312ZM16.7727 29.3213C16.4673 29.316 16.1633 29.3087 15.8613 29.2993C15.824 29.298 15.7867 29.2967 15.7493 29.2953C15.386 29.2833 15.0253 29.268 14.6673 29.2507V25.9227C15.3353 25.954 16.0067 25.9747 16.678 25.9867C16.7133 25.9873 16.7487 25.988 16.7833 25.9887C16.9667 25.992 17.15 25.9947 17.3333 25.9967V29.3287C17.204 29.3273 17.0747 29.3273 16.946 29.3253C16.8873 29.324 16.8307 29.322 16.7727 29.3213ZM4.73133 27.8013C4.70933 27.7947 4.68867 27.7887 4.66667 27.7827V24.562C5.28933 24.73 5.95867 24.8833 6.66667 25.0227V28.2767C6.05467 28.1467 5.49 28.01 4.976 27.87C4.89467 27.8467 4.81067 27.8247 4.73133 27.8013ZM18.7833 33.322C18.9667 33.3253 19.15 33.328 19.3333 33.33V36.6627C18.412 36.654 17.5227 36.6273 16.6667 36.5853V33.2567C17.3347 33.288 18.006 33.3087 18.6773 33.3207C18.7127 33.3207 18.748 33.3213 18.7833 33.322ZM21.3227 33.32C21.994 33.3073 22.6653 33.2867 23.3333 33.256V36.5847C22.4773 36.6267 21.588 36.6533 20.6667 36.662V33.3293C20.85 33.3273 21.0333 33.3247 21.2167 33.3213C21.252 33.3213 21.2873 33.3207 21.3227 33.32ZM26.6667 33.0187V36.3293C26.026 36.3967 25.3593 36.456 24.6667 36.5047V33.18C25.3427 33.136 26.0107 33.082 26.6667 33.0187ZM28 32.8747C28.6873 32.792 29.3547 32.698 30 32.5933V35.8667C29.372 35.9773 28.7047 36.0793 28 36.172V32.8747ZM31.3333 32.3553C32.0413 32.216 32.7107 32.0627 33.3333 31.8947V35.1153C32.7393 35.2867 32.0707 35.4527 31.3333 35.6093V32.3553ZM8.66667 32.3553V35.6093C7.92933 35.4527 7.26067 35.2867 6.66667 35.1153V31.8947C7.28933 32.0627 7.95867 32.2167 8.66667 32.3553ZM10 32.594C10.6453 32.6987 11.3127 32.7927 12 32.8753V36.1727C11.2953 36.08 10.628 35.978 10 35.8673V32.594ZM13.3333 33.0187C13.9893 33.082 14.6573 33.136 15.3333 33.1807V36.5053C14.6407 36.4567 13.974 36.3973 13.3333 36.33V33.0187ZM11.6793 29.032C11.6113 29.0253 11.544 29.018 11.4767 29.0113C11.4287 29.0067 11.3813 29.0007 11.3333 28.996V25.686C11.9893 25.7493 12.6573 25.8033 13.3333 25.848V29.17C12.7733 29.13 12.22 29.0847 11.6793 29.032ZM10 25.5413V28.8387C9.29533 28.746 8.628 28.644 8 28.5333V25.26C8.64533 25.3647 9.31267 25.4593 10 25.5413ZM23.1107 29.1387C22.964 29.15 22.816 29.1613 22.6667 29.172V25.8473C23.3427 25.8027 24.0107 25.7493 24.6667 25.6853V28.996C24.2547 29.0393 23.8333 29.08 23.4007 29.1153C23.304 29.124 23.2073 29.1313 23.1107 29.1387ZM26 28.8387V25.5413C26.6873 25.4587 27.3547 25.3647 28 25.26V28.5333C27.372 28.644 26.7047 28.7467 26 28.8387ZM29.3333 25.022C30.0413 24.8827 30.7107 24.7293 31.3333 24.5613V27.782C30.7393 27.9533 30.0707 28.1193 29.3333 28.276V25.022ZM20.2167 21.9767C19.7153 21.964 19.2253 21.9447 18.744 21.9213C18.718 21.92 18.692 21.9187 18.6667 21.918V18.5893C19.3347 18.6207 20.006 18.6413 20.6773 18.6533C20.7127 18.654 20.748 18.6547 20.7827 18.6553C20.966 18.6587 21.1493 18.6613 21.3327 18.6633V21.992C21.008 21.9887 20.6807 21.9873 20.364 21.98C20.3153 21.9787 20.2653 21.978 20.2167 21.9767ZM4.66667 12.4493V9.22867C5.28933 9.39667 5.95867 9.55 6.66667 9.68933V12.9433C6.58467 12.926 6.5 12.9087 6.42 12.8913C6.06533 12.8133 5.71933 12.732 5.38867 12.646C5.13667 12.5813 4.89733 12.5153 4.66667 12.4493ZM16.7833 10.6553C16.9667 10.6587 17.15 10.6613 17.3333 10.6633V13.992C16.436 13.9833 15.544 13.96 14.6667 13.916V10.59C15.3347 10.6213 16.006 10.642 16.6773 10.654C16.7127 10.654 16.748 10.6547 16.7833 10.6553ZM19.3227 10.6533C19.994 10.6407 20.6653 10.62 21.3333 10.5893V13.9153C21.22 13.9207 21.1113 13.9287 20.9973 13.934C20.988 13.9347 20.9787 13.9347 20.9687 13.9353C20.5213 13.9553 20.0653 13.97 19.6033 13.9807C19.5313 13.9827 19.4593 13.9833 19.3873 13.9853C19.15 13.99 18.9073 13.9907 18.6667 13.9933V10.6633C18.85 10.6613 19.0333 10.6587 19.2167 10.6553C19.252 10.6547 19.2873 10.654 19.3227 10.6533ZM34.514 10.988L34.4953 10.984L34.2527 11.1727C33.9007 11.4467 33.36 11.724 32.6667 11.992V8.82067C33.4593 8.54467 34.134 8.23867 34.6667 7.90333V10.662C34.6667 10.7633 34.6133 10.8727 34.514 10.988ZM26 13.5013V10.208C26.6873 10.1253 27.3547 10.0313 28 9.92667V13.1947C27.368 13.3067 26.7027 13.4093 26 13.5013ZM29.3333 12.938V9.68933C30.0413 9.55 30.7107 9.39667 31.3333 9.22867V12.442C30.736 12.616 30.0633 12.782 29.3333 12.938ZM24.6667 10.352V13.6587C24.0227 13.7267 23.356 13.786 22.6667 13.8353V10.514C23.3427 10.4693 24.0107 10.4153 24.6667 10.352ZM11.3333 13.66V10.352C11.9893 10.4153 12.6573 10.4693 13.3333 10.514V13.8327C12.6547 13.784 11.9853 13.7287 11.3333 13.66ZM10 10.208V13.502C9.868 13.4847 9.73067 13.4707 9.6 13.4527C9.51467 13.4407 9.43333 13.428 9.34933 13.416C8.964 13.3607 8.58733 13.3013 8.218 13.2393C8.144 13.2267 8.07267 13.2133 8 13.2007V9.92733C8.64533 10.0313 9.31267 10.126 10 10.208ZM17.168 21.826C17.078 21.8193 16.9873 21.8127 16.898 21.806C16.4713 21.7727 16.0547 21.736 15.648 21.6953C15.5607 21.6867 15.4733 21.6773 15.3867 21.6687C15.3687 21.6667 15.3513 21.664 15.3333 21.6627V18.352C15.9893 18.4153 16.6573 18.4693 17.3333 18.514V21.8367C17.2793 21.8327 17.222 21.83 17.168 21.826ZM12.7633 21.328C12.4993 21.286 12.2513 21.2407 12 21.1967V17.9273C12.6453 18.032 13.3127 18.126 14 18.2087V21.506C13.592 21.452 13.1927 21.396 12.8093 21.336C12.794 21.3327 12.7787 21.33 12.7633 21.328ZM10.6667 17.6887V20.9373C9.93 20.7793 9.262 20.6113 8.66667 20.4367V17.228C9.28933 17.396 9.95867 17.55 10.6667 17.6887ZM7.33333 16.8207V19.988C6.28533 19.5833 5.60933 19.17 5.38933 18.802L5.34467 18.7273C5.34067 18.7067 5.334 18.6847 5.33333 18.664V15.9033C5.866 16.2387 6.54067 16.5447 7.33333 16.8207ZM23.3227 18.6533C23.994 18.6407 24.6653 18.62 25.3333 18.5893V21.9147C24.4573 21.958 23.5667 21.982 22.6667 21.9913V18.6633C22.85 18.6613 23.0333 18.6587 23.2167 18.6553C23.252 18.6547 23.2873 18.654 23.3227 18.6533ZM31.938 21.2113C31.6453 21.262 31.35 21.312 31.0467 21.358C30.8727 21.3847 30.6947 21.41 30.516 21.4353C30.3473 21.4593 30.172 21.48 30.0007 21.502V18.208C30.688 18.1253 31.3553 18.0313 32.0007 17.9267V21.2C31.9793 21.204 31.9587 21.208 31.938 21.2113ZM27.424 21.7807C27.1753 21.8013 26.9187 21.8147 26.6667 21.8327V18.514C27.3427 18.4693 28.0107 18.416 28.6667 18.352V21.6593C28.2793 21.7 27.8927 21.7407 27.4947 21.774C27.4707 21.776 27.448 21.7787 27.424 21.7807ZM35.0427 20.5307C34.7107 20.6233 34.3593 20.71 34.0007 20.7947C33.8347 20.8333 33.6653 20.872 33.492 20.9093C33.4407 20.9207 33.386 20.9307 33.334 20.942V17.6893C34.042 17.55 34.7113 17.3967 35.334 17.2287V20.4493C35.238 20.476 35.1413 20.5033 35.0427 20.5307ZM38.6593 14.0433C38.598 14.496 37.572 15.098 35.7407 15.664C33.382 16.3927 29.6913 17.06 25.014 17.2667C24.7747 17.2767 24.536 17.2867 24.292 17.2947C24.0927 17.3013 23.8927 17.3073 23.6893 17.3127C23.1373 17.3247 22.5773 17.3333 22 17.3333C21.4227 17.3333 20.8627 17.3247 20.3107 17.312C20.108 17.3073 19.908 17.3007 19.708 17.294C19.4633 17.2867 19.2247 17.276 18.986 17.266C14.3087 17.0593 10.6173 16.392 8.25933 15.6633C6.44267 15.102 5.41867 14.5047 5.34267 14.054C5.346 14.0413 5.346 14.0307 5.354 14.0147C5.39933 14.026 5.45 14.0353 5.496 14.0467C5.75667 14.1087 6.024 14.1687 6.296 14.226C7.62067 14.5113 9.08867 14.7453 10.6527 14.924C10.658 14.924 10.662 14.9267 10.6667 14.9267C10.668 14.9267 10.6693 14.926 10.67 14.926C11.7353 15.0473 12.8407 15.1427 13.9753 15.21C13.984 15.21 13.9913 15.2147 14 15.2147C14.0047 15.2147 14.008 15.212 14.0127 15.212C14.8293 15.26 15.6567 15.2953 16.494 15.314C17.0067 15.3267 17.51 15.3333 18 15.3333C18.35 15.3333 18.7087 15.3293 19.0707 15.3227C23.9147 15.248 28.404 14.672 31.528 13.7793C31.672 13.7387 31.8127 13.6967 31.9513 13.6547C32.036 13.6287 32.1227 13.6033 32.2047 13.5773C32.446 13.5 32.6773 13.4207 32.9007 13.338C32.9393 13.3233 32.976 13.3087 33.0147 13.294C33.2033 13.2227 33.3847 13.1487 33.558 13.0733C33.608 13.0513 33.6593 13.03 33.708 13.008C33.8927 12.9247 34.0713 12.8393 34.2367 12.7507C34.3113 12.7113 34.376 12.6707 34.446 12.6307C34.526 12.5847 34.606 12.538 34.68 12.4907C34.722 12.464 34.772 12.4387 34.812 12.412C37.7967 13.0593 38.5833 13.7673 38.6593 14.0433ZM18 3.33333C28.9927 3.33333 34.5527 5.064 34.6567 6.05733C34.576 6.508 33.5527 7.10333 31.7407 7.66333C29.382 8.392 25.6913 9.05933 21.014 9.266C20.7747 9.276 20.536 9.286 20.292 9.294C20.0927 9.30067 19.8927 9.30667 19.6893 9.312C19.1373 9.32467 18.5773 9.33333 18 9.33333C17.4227 9.33333 16.8627 9.32467 16.3107 9.312C16.108 9.30733 15.908 9.30067 15.708 9.294C15.4633 9.28667 15.2247 9.276 14.986 9.266C10.3087 9.05933 6.61733 8.392 4.25933 7.66333C2.44667 7.10333 1.424 6.508 1.34333 6.05733C1.44733 5.064 7.00733 3.33333 18 3.33333ZM1.33333 10.664V7.90333C1.866 8.23867 2.54067 8.54467 3.33333 8.82067V12.0127C2.03667 11.5267 1.33467 11.0393 1.33333 10.664ZM4.56267 19.89C4.57267 19.9007 4.588 19.91 4.598 19.9207C5.51067 20.842 7.40067 21.566 9.75333 22.106C9.80733 22.1187 9.86467 22.1307 9.91933 22.1433C10.092 22.182 10.2673 22.22 10.4447 22.2567C12.6053 22.7167 15.1847 23.0493 17.9947 23.214C17.9967 23.214 17.998 23.2147 17.9993 23.2147C18.0007 23.2147 18.0013 23.214 18.002 23.214C18.9047 23.2667 19.828 23.3033 20.7707 23.3193C21.188 23.328 21.5987 23.3333 22 23.3333C22.46 23.3333 22.932 23.328 23.412 23.3167C24.284 23.2987 25.1433 23.2627 25.9907 23.2133C25.994 23.2133 25.9967 23.2153 26 23.2153C26.006 23.2153 26.0107 23.212 26.0167 23.212C28.834 23.046 31.4773 22.71 33.7127 22.2267C33.2287 22.48 32.566 22.742 31.7407 22.9973C29.2507 23.7667 25.274 24.4673 20.22 24.63C20.07 24.6347 19.922 24.64 19.77 24.644C19.6067 24.648 19.4407 24.6507 19.2747 24.654C18.8553 24.6607 18.4333 24.6667 18 24.6667C17.4227 24.6667 16.8627 24.658 16.3107 24.6453C16.108 24.6407 15.908 24.634 15.708 24.6273C15.4633 24.62 15.2247 24.6093 14.986 24.5993C10.3087 24.3927 6.61733 23.7253 4.25933 22.9967C2.426 22.43 1.4 21.8273 1.34067 21.3747C1.41467 21.124 2.08867 20.4967 4.56267 19.89ZM1.33333 25.9973V23.2367C1.866 23.572 2.54067 23.878 3.33333 24.154V27.3333L2.95267 27.1853L2.94467 27.1933C1.898 26.7593 1.33467 26.3333 1.33333 25.9973ZM3.33333 33.3307V30.57C3.866 30.9053 4.54067 31.2113 5.33333 31.4873V34.6793C4.03667 34.1933 3.33467 33.706 3.33333 33.3307ZM34.6667 34.6793V31.488C35.4593 31.212 36.134 30.906 36.6667 30.5707V33.3293C36.666 33.7047 35.9633 34.1927 34.6667 34.6793ZM36.658 28.718C36.5853 29.1693 35.5613 29.768 33.7407 30.3307C31.382 31.0593 27.6913 31.7267 23.014 31.9333C22.7747 31.9433 22.536 31.9533 22.292 31.9613C22.0927 31.968 21.8927 31.974 21.6893 31.9793C21.1373 31.9913 20.5773 32 20 32C19.4227 32 18.862 31.9913 18.3093 31.9787C18.1087 31.974 17.9107 31.9673 17.7127 31.9607C17.4667 31.9527 17.2267 31.9427 16.986 31.9327C12.3087 31.726 8.618 31.0587 6.25933 30.33C4.496 29.7853 3.47733 29.2067 3.34933 28.76C3.548 28.8293 3.754 28.8967 3.96533 28.9627C3.98667 28.9693 4.008 28.976 4.02933 28.982C4.20933 29.0373 4.39333 29.0907 4.582 29.1427C4.65333 29.1627 4.72533 29.1827 4.798 29.202C4.90467 29.2307 5.014 29.258 5.12333 29.286C7.55133 29.908 10.6507 30.3487 13.9967 30.5467C13.998 30.5467 13.9987 30.5473 14 30.5473C14.0007 30.5473 14.0013 30.5467 14.002 30.5467C15.0353 30.608 16.0907 30.646 17.1573 30.6587C17.4413 30.664 17.7233 30.6667 18 30.6667C18.3673 30.6667 18.7433 30.662 19.124 30.6553C20.0967 30.6393 21.0567 30.6033 21.9953 30.5473C21.9973 30.5473 21.9987 30.5487 22.0007 30.5487C22.004 30.5487 22.006 30.5467 22.0093 30.5467C23.1527 30.478 24.2593 30.38 25.3227 30.258C25.3267 30.258 25.33 30.26 25.334 30.26C25.3487 30.26 25.3607 30.2527 25.3753 30.2513C26.5593 30.1147 27.682 29.9467 28.724 29.7513C28.9387 29.712 29.15 29.6713 29.3593 29.6293C29.406 29.62 29.4527 29.6107 29.4993 29.6007C31.468 29.1967 33.172 28.6733 34.3413 28.0247C34.4053 27.99 34.4653 27.954 34.526 27.9187C34.6 27.8747 34.6707 27.83 34.7393 27.7847C34.8033 27.7433 34.8773 27.7033 34.936 27.6613C36.252 28.1307 36.6147 28.5507 36.658 28.718ZM36.6667 20.0127V16.8213C37.4593 16.5453 38.134 16.2393 38.6667 15.904V18.6627C38.666 19.038 37.9633 19.526 36.6667 20.0127Z" fill="#727171"/>
</svg>
