<svg width="48" height="50" viewBox="0 0 48 50" fill="none" xmlns="http://www.w3.org/2000/svg">
<g clip-path="url(#clip0)">
<path d="M34.6416 48.9752L26.6526 17.8223C28.3809 16.3573 28.5944 13.7685 27.1294 12.0402C25.6644 10.3118 23.0757 10.0984 21.3473 11.5634C19.619 13.0284 19.4055 15.6171 20.8705 17.3454C21.0161 17.5172 21.1755 17.6767 21.3473 17.8223L13.3591 48.9752C13.2462 49.4141 13.5105 49.8614 13.9493 49.9743C13.9497 49.9744 13.9502 49.9745 13.9507 49.9746C14.0172 49.9914 14.0855 49.9999 14.1541 50C14.5285 49.9998 14.8551 49.7464 14.9484 49.3838L15.2224 48.3172C15.2684 48.3042 15.3131 48.2872 15.3561 48.2663L30.6935 40.1936L33.0499 49.383C33.1429 49.7465 33.4706 50.0005 33.8458 50C33.9147 50 33.9833 49.9915 34.0501 49.9746C34.4891 49.8625 34.7541 49.4156 34.6419 48.9766C34.6418 48.9762 34.6417 48.9758 34.6416 48.9752ZM26.7313 24.7373L22.2695 20.8326L22.834 18.6321C23.2113 18.7522 23.6041 18.816 24 18.8216C24.3957 18.816 24.7886 18.7522 25.1659 18.6321L26.7313 24.7373ZM24 12.2577C25.3594 12.2577 26.4614 13.3597 26.4614 14.7192C26.4614 16.0786 25.3594 17.1806 24 17.1806C22.6405 17.1806 21.5385 16.0786 21.5385 14.7192C21.5385 13.3597 22.6405 12.2577 24 12.2577ZM21.8134 22.6131L26.7551 26.9387L19.4528 31.8041L21.8134 22.6131ZM15.7664 46.1946L18.7119 34.7078L28.7218 39.378L15.7664 46.1946ZM19.9254 33.464L27.6486 28.3146L30.1979 38.2572L19.9254 33.464Z" fill="black"/>
<path d="M17 9C17 9 14 10 14 15C14 20 17 21.5 17 21.5" stroke="black" stroke-width="1.5" stroke-linecap="round"/>
<path d="M12 5C12 5 8 6.52 8 14.12C8 21.72 12 24 12 24" stroke="black" stroke-width="1.5" stroke-linecap="round"/>
<path d="M8 2C8 2 2 3.92 2 13.52C2 23.12 8 26 8 26" stroke="black" stroke-width="1.5" stroke-linecap="round"/>
<path d="M31 19C31 19 34 18 34 13C34 8 31 6.5 31 6.5" stroke="black" stroke-width="1.5" stroke-linecap="round"/>
<path d="M36 23C36 23 40 21.48 40 13.88C40 6.28 36 4 36 4" stroke="black" stroke-width="1.5" stroke-linecap="round"/>
<path d="M40 26C40 26 46 24.08 46 14.48C46 4.88 40 2 40 2" stroke="black" stroke-width="1.5" stroke-linecap="round"/>
</g>
<defs>
<clipPath id="clip0">
<rect width="48" height="50" fill="white"/>
</clipPath>
</defs>
</svg>
