<svg width="48" height="48" viewBox="0 0 48 48" fill="none" xmlns="http://www.w3.org/2000/svg">
<path fill-rule="evenodd" clip-rule="evenodd" d="M27.2672 3.60004C34.4232 3.60004 40.3584 9.35524 40.7808 16.5552C44.9384 17.648 48 21.5864 48 25.9776C48 31.2832 43.6832 35.6 38.3776 35.6H35.2C34.7576 35.6 34.4 35.2424 34.4 34.8C34.4 34.3576 34.7576 34 35.2 34H38.3776C42.8008 34 46.4 30.4008 46.4 25.9776C46.4 22.1288 43.592 18.6976 39.8672 17.9896C39.7584 17.9744 37.9016 17.7216 36.12 17.9912C36.08 17.9976 36.0392 18.0008 35.9992 18.0008C35.6104 18.0008 35.2696 17.7168 35.2096 17.3208C35.1432 16.884 35.4432 16.476 35.88 16.4096C37.1048 16.2232 38.3296 16.2528 39.1464 16.3104C38.6096 10.108 33.4632 5.20004 27.2672 5.20004C23.5104 5.20004 19.7336 7.10324 17.44 10.1032C19.0032 11.4248 20 13.3968 20 15.6C20 16.0424 19.6424 16.4 19.2 16.4C18.7576 16.4 18.4 16.0424 18.4 15.6C18.4 13.6304 17.3752 11.8984 15.8336 10.9C15.652 10.7824 15.464 10.6784 15.272 10.5832C15.2567 10.5758 15.2416 10.5684 15.2264 10.5609C15.1858 10.541 15.1453 10.5211 15.104 10.5024C14.8864 10.4032 14.664 10.3152 14.436 10.2456C14.422 10.2416 14.4078 10.2382 14.3936 10.2348C14.3794 10.2314 14.3652 10.228 14.3512 10.224C14.144 10.164 13.9336 10.1176 13.72 10.0824C13.6584 10.072 13.596 10.0616 13.5336 10.0536C13.2912 10.0216 13.0472 10 12.8 10C9.7128 10 7.2 12.5128 7.2 15.6C7.2 15.6603 7.2043 15.72 7.20859 15.7796C7.2092 15.788 7.20981 15.7964 7.2104 15.8048L7.2208 15.96L7.212 16.108C7.21134 16.1197 7.21066 16.1313 7.20999 16.1429C7.20498 16.2295 7.2 16.3154 7.2 16.4V16.904L6.7464 17.1208C3.764 18.5504 1.6 22 1.6 25.3232C1.6 30.108 5.492 34 10.276 34H14.4C14.8424 34 15.2 34.3576 15.2 34.8C15.2 35.2424 14.8424 35.6 14.4 35.6H10.276C4.6096 35.6 0 30.9896 0 25.3232C0 21.5192 2.2856 17.7184 5.6136 15.9048C5.6064 15.804 5.6 15.7032 5.6 15.6C5.6 11.6296 8.8296 8.40004 12.8 8.40004C13.0728 8.40004 13.3416 8.41844 13.6072 8.44804C13.6595 8.45367 13.7107 8.46226 13.7621 8.47086C13.7909 8.47569 13.8197 8.48052 13.8488 8.48484C14.0344 8.51284 14.2184 8.54404 14.3984 8.58484C14.4761 8.60225 14.5527 8.62303 14.6296 8.64389C14.6445 8.64795 14.6594 8.652 14.6744 8.65604C14.8424 8.70164 15.0072 8.75204 15.1696 8.80884C15.2616 8.84084 15.3528 8.87364 15.444 8.90964C15.608 8.97524 15.7688 9.04804 15.9272 9.12484C15.9533 9.13718 15.9798 9.1482 16.0063 9.15922C16.0416 9.17391 16.0769 9.18861 16.1112 9.20644C18.7168 5.73044 22.9232 3.60004 27.2672 3.60004ZM25.6001 41.6688L30.6345 36.6344C30.9473 36.3216 31.4529 36.3216 31.7657 36.6344C32.0785 36.9472 32.0785 37.4528 31.7657 37.7656L25.3665 44.1648C25.2929 44.2392 25.2041 44.2976 25.1057 44.3384C25.0081 44.3792 24.9041 44.4 24.8001 44.4C24.6961 44.4 24.5921 44.3792 24.4945 44.3384C24.3961 44.2976 24.3073 44.2392 24.2337 44.1648L17.8345 37.7656C17.5217 37.4528 17.5217 36.9472 17.8345 36.6344C18.1473 36.3216 18.6529 36.3216 18.9657 36.6344L24.0001 41.6688V25.2C24.0001 24.7576 24.3577 24.4 24.8001 24.4C25.2425 24.4 25.6001 24.7576 25.6001 25.2V41.6688Z" fill="#1D2632"/>
</svg>
