<svg width="48" height="48" viewBox="0 0 48 48" fill="none" xmlns="http://www.w3.org/2000/svg">
<path d="M42.75 19.5001C41.6851 19.5013 40.6551 19.8802 39.8433 20.5693C39.0314 21.2584 38.4902 22.213 38.316 23.2636C38.2927 23.2636 38.2732 23.2501 38.25 23.2501H36.75C36.7365 23.2501 36.7252 23.2568 36.7125 23.2576C36.5483 20.3981 35.4208 17.6785 33.5137 15.5416C33.519 15.5363 33.5257 15.5356 33.5302 15.5303L36.5302 12.5303C36.5963 12.4633 36.6488 12.3841 36.6847 12.2971C37.154 12.591 37.6962 12.7479 38.25 12.7501C38.8433 12.7501 39.4233 12.5741 39.9167 12.2445C40.41 11.9148 40.7945 11.4463 41.0216 10.8981C41.2487 10.3499 41.3081 9.74674 41.1923 9.1648C41.0766 8.58285 40.7908 8.0483 40.3713 7.62875C39.9517 7.20919 39.4172 6.92347 38.8352 6.80771C38.2533 6.69196 37.6501 6.75137 37.1019 6.97843C36.5537 7.20549 36.0852 7.59001 35.7555 8.08336C35.4259 8.5767 35.25 9.15672 35.25 9.75007C35.2512 10.3035 35.4071 10.8457 35.6999 11.3153C35.6129 11.3512 35.5337 11.4037 35.4667 11.4698L32.4667 14.4698C32.4615 14.4743 32.4607 14.4811 32.4554 14.4863C30.3193 12.5798 27.6009 11.4524 24.7425 11.2876C24.7425 11.2748 24.75 11.2636 24.75 11.2501V8.25007C24.7465 8.22478 24.7415 8.19973 24.7349 8.17507C25.6475 7.99266 26.4597 7.47745 27.0135 6.72958C27.5674 5.98171 27.8234 5.05461 27.7317 4.12851C27.6401 3.2024 27.2073 2.34346 26.5177 1.71865C25.828 1.09384 24.9306 0.747803 23.9999 0.747803C23.0693 0.747803 22.1719 1.09384 21.4822 1.71865C20.7926 2.34346 20.3598 3.2024 20.2682 4.12851C20.1765 5.05461 20.4325 5.98171 20.9864 6.72958C21.5402 7.47745 22.3524 7.99266 23.2649 8.17507C23.2584 8.19973 23.2534 8.22478 23.2499 8.25007V11.2501C23.2499 11.2636 23.2567 11.2748 23.2574 11.2876C20.398 11.4517 17.6783 12.5792 15.5414 14.4863C15.5362 14.4811 15.5354 14.4743 15.5302 14.4698L8.7802 7.71982C8.71318 7.65371 8.63396 7.60124 8.54695 7.56532C8.84085 7.09597 8.99775 6.55384 8.99995 6.00007C8.99995 5.40672 8.824 4.8267 8.49436 4.33336C8.16471 3.84001 7.69618 3.45549 7.148 3.22843C6.59982 3.00137 5.99662 2.94196 5.41468 3.05771C4.83274 3.17347 4.29819 3.45919 3.87863 3.87875C3.45907 4.2983 3.17335 4.83285 3.05759 5.4148C2.94184 5.99674 3.00125 6.59994 3.22831 7.14812C3.45537 7.6963 3.83989 8.16483 4.33324 8.49448C4.82659 8.82412 5.40661 9.00007 5.99995 9.00007C6.55343 8.99877 7.09554 8.84291 7.5652 8.55007C7.60112 8.63708 7.65359 8.7163 7.7197 8.78332L14.4697 15.5333C14.4742 15.5386 14.4809 15.5393 14.4862 15.5446C12.5797 17.6807 11.4523 20.3992 11.2874 23.2576C11.2747 23.2576 11.2634 23.2501 11.2499 23.2501H9.74995C9.7267 23.2501 9.7072 23.2613 9.68395 23.2636C9.49909 22.1493 8.90194 21.1453 8.01109 20.4509C7.12024 19.7565 6.00083 19.4225 4.87513 19.5153C3.74943 19.608 2.69978 20.1207 1.93459 20.9515C1.1694 21.7823 0.744629 22.8706 0.744629 24.0001C0.744629 25.1296 1.1694 26.2178 1.93459 27.0486C2.69978 27.8794 3.74943 28.3921 4.87513 28.4849C6.00083 28.5776 7.12024 28.2436 8.01109 27.5493C8.90194 26.8549 9.49909 25.8508 9.68395 24.7366C9.7072 24.7366 9.7267 24.7501 9.74995 24.7501H11.2499C11.2634 24.7501 11.2747 24.7433 11.2874 24.7426C11.4498 27.5807 12.5616 30.2819 14.4442 32.4121C14.4805 32.4659 14.5242 32.5143 14.5739 32.5561C16.8112 35.0269 19.9298 36.5196 23.2574 36.7126C23.2574 36.7253 23.2499 36.7366 23.2499 36.7501V39.7501C23.2534 39.7754 23.2584 39.8004 23.2649 39.8251C22.3524 40.0075 21.5402 40.5227 20.9864 41.2706C20.4325 42.0184 20.1765 42.9455 20.2682 43.8716C20.3598 44.7977 20.7926 45.6567 21.4822 46.2815C22.1719 46.9063 23.0693 47.2523 23.9999 47.2523C24.9306 47.2523 25.828 46.9063 26.5177 46.2815C27.2073 45.6567 27.6401 44.7977 27.7317 43.8716C27.8234 42.9455 27.5674 42.0184 27.0135 41.2706C26.4597 40.5227 25.6475 40.0075 24.7349 39.8251C24.7415 39.8004 24.7465 39.7754 24.75 39.7501V36.7501C24.75 36.7366 24.7432 36.7253 24.7425 36.7126C27.6019 36.5484 30.3216 35.4209 32.4585 33.5138C32.4637 33.5191 32.4644 33.5258 32.4697 33.5303L35.4697 36.5303C35.5367 36.5964 35.6159 36.6489 35.703 36.6848C35.409 37.1542 35.2521 37.6963 35.25 38.2501C35.25 38.8434 35.4259 39.4234 35.7555 39.9168C36.0852 40.4101 36.5537 40.7946 37.1019 41.0217C37.6501 41.2488 38.2533 41.3082 38.8352 41.1924C39.4172 41.0767 39.9517 40.7909 40.3713 40.3714C40.7908 39.9518 41.0766 39.4173 41.1923 38.8353C41.3081 38.2534 41.2487 37.6502 41.0216 37.102C40.7945 36.5538 40.41 36.0853 39.9167 35.7557C39.4233 35.426 38.8433 35.2501 38.25 35.2501C37.6965 35.2514 37.1544 35.4072 36.6847 35.7001C36.6488 35.6131 36.5963 35.5338 36.5302 35.4668L33.5302 32.4668C33.543 32.4503 33.5474 32.4293 33.5587 32.4113C35.44 30.281 36.5507 27.5801 36.7125 24.7426C36.7252 24.7426 36.7365 24.7501 36.75 24.7501H38.25C38.2732 24.7501 38.2927 24.7388 38.316 24.7366C38.4565 25.5837 38.8365 26.373 39.4112 27.0112C39.9858 27.6494 40.731 28.1098 41.5589 28.3381C42.3867 28.5664 43.2626 28.5531 44.0832 28.2997C44.9037 28.0463 45.6346 27.5634 46.1895 26.908C46.7444 26.2526 47.1003 25.4521 47.215 24.6011C47.3296 23.75 47.1984 22.8839 46.8368 22.105C46.4751 21.3261 45.8982 20.6669 45.174 20.2054C44.4498 19.7438 43.6087 19.4991 42.75 19.5001V19.5001ZM38.25 8.25007C38.5466 8.25007 38.8366 8.33804 39.0833 8.50286C39.33 8.66769 39.5222 8.90195 39.6358 9.17604C39.7493 9.45013 39.779 9.75173 39.7211 10.0427C39.6633 10.3337 39.5204 10.6009 39.3106 10.8107C39.1008 11.0205 38.8336 11.1634 38.5426 11.2212C38.2516 11.2791 37.95 11.2494 37.6759 11.1359C37.4018 11.0224 37.1676 10.8301 37.0027 10.5834C36.8379 10.3367 36.75 10.0467 36.75 9.75007C36.75 9.35224 36.908 8.97071 37.1893 8.68941C37.4706 8.4081 37.8521 8.25007 38.25 8.25007V8.25007ZM5.99995 7.50007C5.70328 7.50007 5.41327 7.41209 5.16659 7.24727C4.91992 7.08245 4.72766 6.84818 4.61413 6.57409C4.5006 6.3 4.47089 5.9984 4.52877 5.70743C4.58665 5.41646 4.72951 5.14919 4.93929 4.93941C5.14907 4.72963 5.41634 4.58677 5.70731 4.52889C5.99829 4.47101 6.29989 4.50072 6.57397 4.61425C6.84806 4.72778 7.08233 4.92004 7.24715 5.16671C7.41198 5.41339 7.49995 5.7034 7.49995 6.00007C7.49995 6.39789 7.34191 6.77942 7.06061 7.06073C6.77931 7.34203 6.39777 7.50007 5.99995 7.50007ZM5.24995 27.0001C4.65661 27.0001 4.07659 26.8241 3.58324 26.4945C3.08989 26.1648 2.70537 25.6963 2.47831 25.1481C2.25125 24.5999 2.19184 23.9967 2.30759 23.4148C2.42335 22.8329 2.70907 22.2983 3.12863 21.8787C3.54819 21.4592 4.08274 21.1735 4.66468 21.0577C5.24662 20.942 5.84982 21.0014 6.398 21.2284C6.94618 21.4555 7.41471 21.84 7.74436 22.3334C8.074 22.8267 8.24995 23.4067 8.24995 24.0001C8.24995 24.7957 7.93388 25.5588 7.37127 26.1214C6.80866 26.684 6.0456 27.0001 5.24995 27.0001V27.0001ZM38.25 36.7501C38.5466 36.7501 38.8366 36.838 39.0833 37.0029C39.33 37.1677 39.5222 37.402 39.6358 37.676C39.7493 37.9501 39.779 38.2517 39.7211 38.5427C39.6633 38.8337 39.5204 39.101 39.3106 39.3107C39.1008 39.5205 38.8336 39.6634 38.5426 39.7212C38.2516 39.7791 37.95 39.7494 37.6759 39.6359C37.4018 39.5224 37.1676 39.3301 37.0027 39.0834C36.8379 38.8368 36.75 38.5467 36.75 38.2501C36.75 37.8522 36.908 37.4707 37.1893 37.1894C37.4706 36.9081 37.8521 36.7501 38.25 36.7501ZM21.7499 4.50007C21.7499 4.05506 21.8819 3.62004 22.1291 3.25003C22.3764 2.88002 22.7278 2.59164 23.1389 2.42134C23.55 2.25104 24.0024 2.20648 24.4389 2.2933C24.8754 2.38012 25.2763 2.59441 25.5909 2.90908C25.9056 3.22375 26.1199 3.62466 26.2067 4.06111C26.2935 4.49757 26.249 4.94997 26.0787 5.3611C25.9084 5.77224 25.62 6.12364 25.25 6.37087C24.88 6.61811 24.445 6.75007 23.9999 6.75007C23.4032 6.75007 22.8309 6.51301 22.409 6.09106C21.987 5.6691 21.7499 5.0968 21.7499 4.50007V4.50007ZM26.25 43.5001C26.25 43.9451 26.118 44.3801 25.8708 44.7501C25.6235 45.1201 25.2721 45.4085 24.861 45.5788C24.4499 45.7491 23.9975 45.7937 23.561 45.7068C23.1245 45.62 22.7236 45.4057 22.409 45.0911C22.0943 44.7764 21.88 44.3755 21.7932 43.939C21.7064 43.5026 21.7509 43.0502 21.9212 42.639C22.0915 42.2279 22.3799 41.8765 22.7499 41.6293C23.1199 41.382 23.5549 41.2501 23.9999 41.2501C24.5967 41.2501 25.169 41.4871 25.5909 41.9091C26.0129 42.331 26.25 42.9033 26.25 43.5001ZM23.9999 35.2501C22.4749 35.2497 20.9661 34.938 19.5657 34.3342C18.1653 33.7304 16.9029 32.8472 15.8557 31.7386C16.0509 30.0979 16.7331 28.5533 17.8145 27.304C18.8958 26.0548 20.3267 25.1581 21.9224 24.7298C22.0713 24.6946 22.2059 24.6147 22.3081 24.5009C22.4103 24.387 22.4752 24.2446 22.4941 24.0928C22.513 23.941 22.4851 23.787 22.414 23.6515C22.3429 23.516 22.2321 23.4055 22.0964 23.3348C21.5192 23.0595 21.036 22.62 20.7075 22.0712C20.379 21.5224 20.2199 20.8889 20.2499 20.2501C20.2499 19.2555 20.645 18.3017 21.3483 17.5984C22.0516 16.8952 23.0054 16.5001 23.9999 16.5001C24.9945 16.5001 25.9483 16.8952 26.6516 17.5984C27.3549 18.3017 27.75 19.2555 27.75 20.2501C27.78 20.8889 27.6209 21.5224 27.2924 22.0712C26.9639 22.62 26.4807 23.0595 25.9034 23.3348C25.7678 23.4055 25.657 23.516 25.5859 23.6515C25.5148 23.787 25.4869 23.941 25.5058 24.0928C25.5247 24.2446 25.5896 24.387 25.6918 24.5009C25.794 24.6147 25.9286 24.6946 26.0775 24.7298C27.6732 25.1581 29.1041 26.0548 30.1854 27.304C31.2668 28.5533 31.949 30.0979 32.1442 31.7386C31.097 32.8472 29.8346 33.7304 28.4342 34.3342C27.0338 34.938 25.525 35.2497 23.9999 35.2501V35.2501ZM33.3592 30.2318C32.9888 28.8095 32.3037 27.4887 31.3543 26.3667C30.405 25.2447 29.2158 24.3503 27.8745 23.7496C28.3304 23.291 28.6877 22.744 28.9242 22.1421C29.1608 21.5403 29.2716 20.8964 29.25 20.2501C29.25 18.8577 28.6968 17.5223 27.7123 16.5378C26.7277 15.5532 25.3923 15.0001 23.9999 15.0001C22.6076 15.0001 21.2722 15.5532 20.2876 16.5378C19.3031 17.5223 18.7499 18.8577 18.7499 20.2501C18.7283 20.8964 18.8391 21.5403 19.0757 22.1421C19.3122 22.744 19.6695 23.291 20.1254 23.7496C18.7841 24.3503 17.5949 25.2447 16.6456 26.3667C15.6962 27.4887 15.0111 28.8095 14.6407 30.2318C13.5107 28.5376 12.8618 26.5685 12.7632 24.5344C12.6645 22.5004 13.1198 20.4777 14.0806 18.6821C15.0413 16.8865 16.4714 15.3854 18.2183 14.3388C19.9652 13.2922 21.9635 12.7395 23.9999 12.7395C26.0364 12.7395 28.0347 13.2922 29.7816 14.3388C31.5285 15.3854 32.9586 16.8865 33.9193 18.6821C34.8801 20.4777 35.3354 22.5004 35.2367 24.5344C35.1381 26.5685 34.4892 28.5376 33.3592 30.2318V30.2318ZM42.75 27.0001C42.1566 27.0001 41.5766 26.8241 41.0832 26.4945C40.5899 26.1648 40.2054 25.6963 39.9783 25.1481C39.7512 24.5999 39.6918 23.9967 39.8076 23.4148C39.9233 22.8329 40.2091 22.2983 40.6286 21.8787C41.0482 21.4592 41.5827 21.1735 42.1647 21.0577C42.7466 20.942 43.3498 21.0014 43.898 21.2284C44.4462 21.4555 44.9147 21.84 45.2444 22.3334C45.574 22.8267 45.75 23.4067 45.75 24.0001C45.75 24.7957 45.4339 25.5588 44.8713 26.1214C44.3087 26.684 43.5456 27.0001 42.75 27.0001Z" fill="#1D2632"/>
<path d="M14.9651 32.8143L11.9651 35.8143C11.899 35.8813 11.8465 35.9605 11.8106 36.0475C11.3413 35.7536 10.7991 35.5967 10.2454 35.5945C9.65202 35.5945 9.072 35.7705 8.57865 36.1001C8.0853 36.4298 7.70079 36.8983 7.47372 37.4465C7.24666 37.9947 7.18725 38.5979 7.30301 39.1798C7.41876 39.7618 7.70448 40.2963 8.12404 40.7159C8.5436 41.1354 9.07815 41.4211 9.66009 41.5369C10.242 41.6527 10.8452 41.5932 11.3934 41.3662C11.9416 41.1391 12.4101 40.7546 12.7398 40.2613C13.0694 39.7679 13.2454 39.1879 13.2454 38.5945C13.2441 38.0411 13.0882 37.499 12.7954 37.0293C12.8824 36.9934 12.9616 36.9409 13.0286 36.8748L16.0286 33.8748C16.1652 33.7333 16.2408 33.5439 16.2391 33.3472C16.2374 33.1506 16.1585 32.9625 16.0195 32.8234C15.8804 32.6844 15.6923 32.6055 15.4957 32.6038C15.299 32.6021 15.1096 32.6777 14.9681 32.8143H14.9651ZM10.2454 40.0945C9.94869 40.0945 9.65868 40.0066 9.41201 39.8417C9.16533 39.6769 8.97307 39.4427 8.85954 39.1686C8.74601 38.8945 8.71631 38.5929 8.77418 38.3019C8.83206 38.0109 8.97492 37.7437 9.1847 37.5339C9.39448 37.3241 9.66176 37.1812 9.95273 37.1234C10.2437 37.0655 10.5453 37.0952 10.8194 37.2087C11.0935 37.3223 11.3277 37.5145 11.4926 37.7612C11.6574 38.0079 11.7454 38.2979 11.7454 38.5945C11.7454 38.9924 11.5873 39.3739 11.306 39.6552C11.0247 39.9365 10.6432 40.0945 10.2454 40.0945Z" fill="#1D2632"/>
</svg>
