<svg width="16" height="16" viewBox="0 0 16 16" fill="none" xmlns="http://www.w3.org/2000/svg">
<g clip-path="url(#clip0)">
<path d="M13.6667 6H12.6667V4.66666C12.6667 2.09344 10.5732 0 8 0C5.42675 0 3.33334 2.09344 3.33334 4.66666V6H2.33334C2.14909 6 2 6.14909 2 6.33334V14.6667C2 15.402 2.59797 16 3.33334 16H12.6667C13.402 16 14 15.402 14 14.6667V6.33334C14 6.14909 13.8509 6 13.6667 6ZM8.99806 12.9632C9.00847 13.0573 8.97822 13.1517 8.91506 13.2223C8.85191 13.293 8.76141 13.3333 8.66669 13.3333H7.33334C7.23863 13.3333 7.14812 13.293 7.08497 13.2223C7.02181 13.1517 6.99153 13.0573 7.00197 12.9632L7.21225 11.0723C6.87078 10.8239 6.66669 10.431 6.66669 10C6.66669 9.26466 7.26466 8.66666 8.00003 8.66666C8.73541 8.66666 9.33337 9.26462 9.33337 10C9.33337 10.431 9.12928 10.8239 8.78781 11.0723L8.99806 12.9632ZM10.6667 6H5.33334V4.66666C5.33334 3.19628 6.52962 2 8 2C9.47038 2 10.6667 3.19628 10.6667 4.66666V6Z" fill="#1D2632"/>
</g>
<defs>
<clipPath id="clip0">
<rect width="16" height="16" fill="white"/>
</clipPath>
</defs>
</svg>
