<svg width="207" height="53" viewBox="0 0 207 53" fill="none" xmlns="http://www.w3.org/2000/svg">
<path fill-rule="evenodd" clip-rule="evenodd" d="M26.2299 5.40845C14.7305 5.40845 5.40845 14.7305 5.40845 26.2299C5.40845 37.7292 14.7305 47.0513 26.2299 47.0513C37.7292 47.0513 47.0513 37.7292 47.0513 26.2299C47.0513 14.7305 37.7292 5.40845 26.2299 5.40845ZM34.0257 32.2252L31.2947 34.9561V23.0391L19.1295 35.2044L17.1433 33.2182L29.3086 21.053L17.3916 21.053L20.1225 18.322L34.0257 18.322V32.2252Z" fill="white"/>
<path d="M71.1642 18.8633V28.6598C71.1642 30.2874 70.6534 31.5746 69.6319 32.5212C68.6171 33.4678 67.2279 33.9411 65.464 33.9411C63.7274 33.9411 62.3483 33.4814 61.3268 32.5621C60.3053 31.6427 59.7843 30.3794 59.7638 28.7722V18.8633H62.8284V28.6802C62.8284 29.6541 63.06 30.3657 63.5231 30.8152C63.993 31.2579 64.64 31.4792 65.464 31.4792C67.187 31.4792 68.0621 30.5735 68.0894 28.7619V18.8633H71.1642ZM78.8339 28.4963V33.7368H75.7693V18.8633H81.5716C82.6885 18.8633 83.6691 19.0676 84.5136 19.4762C85.3649 19.8848 86.0187 20.4671 86.475 21.223C86.9312 21.9721 87.1594 22.8268 87.1594 23.7871C87.1594 25.2444 86.6588 26.3954 85.6577 27.2398C84.6634 28.0775 83.2844 28.4963 81.5205 28.4963H78.8339ZM78.8339 26.014H81.5716C82.382 26.014 82.9983 25.8233 83.4206 25.4419C83.8496 25.0606 84.0641 24.5158 84.0641 23.8075C84.0641 23.0788 83.8496 22.4897 83.4206 22.0402C82.9915 21.5908 82.399 21.3592 81.6431 21.3456H78.8339V26.014ZM103.195 33.7368H101.224V26.8619H93.7258V33.7368H91.7645V18.8633H93.7258V25.2581H101.224V18.8633H103.195V33.7368ZM120.212 26.7802C120.212 28.2375 119.967 29.5111 119.477 30.6007C118.986 31.6835 118.292 32.511 117.393 33.083C116.494 33.6551 115.445 33.9411 114.246 33.9411C113.075 33.9411 112.037 33.6551 111.131 33.083C110.225 32.5042 109.52 31.6835 109.016 30.6211C108.519 29.5519 108.264 28.3159 108.25 26.913V25.8403C108.25 24.4102 108.499 23.1469 108.996 22.0504C109.493 20.954 110.194 20.1163 111.1 19.5375C112.013 18.9518 113.055 18.6589 114.226 18.6589C115.418 18.6589 116.467 18.9484 117.372 19.5273C118.285 20.0993 118.986 20.9336 119.477 22.03C119.967 23.1197 120.212 24.3898 120.212 25.8403V26.7802ZM118.261 25.8199C118.261 24.0561 117.907 22.7042 117.199 21.7644C116.49 20.8178 115.5 20.3445 114.226 20.3445C112.987 20.3445 112.009 20.8178 111.294 21.7644C110.586 22.7042 110.222 24.0118 110.201 25.6871V26.7802C110.201 28.4895 110.559 29.8346 111.274 30.8152C111.996 31.7891 112.987 32.276 114.246 32.276C115.513 32.276 116.494 31.8163 117.188 30.8969C117.883 29.9708 118.241 28.6462 118.261 26.9232V25.8199ZM127.218 32.133H134.266V33.7368H125.246V18.8633H127.218V32.133ZM138.596 33.7368V18.8633H142.794C144.088 18.8633 145.232 19.1493 146.227 19.7213C147.221 20.2934 147.987 21.1072 148.525 22.1628C149.07 23.2184 149.346 24.4306 149.353 25.7995V26.7495C149.353 28.1524 149.08 29.3817 148.535 30.4373C147.997 31.4928 147.224 32.3033 146.216 32.8685C145.215 33.4338 144.047 33.7232 142.713 33.7368H138.596ZM140.557 20.4773V32.133H142.621C144.132 32.133 145.307 31.6631 146.145 30.7233C146.989 29.7835 147.412 28.4453 147.412 26.7087V25.8403C147.412 24.1514 147.013 22.8404 146.216 21.9074C145.426 20.9676 144.303 20.4909 142.845 20.4773H140.557ZM156.522 33.7368H154.56V18.8633H156.522V33.7368ZM173.641 33.7368H171.669L164.181 22.2752V33.7368H162.21V18.8633H164.181L171.689 30.376V18.8633H173.641V33.7368ZM190.198 31.7857C189.694 32.5076 188.989 33.049 188.083 33.4099C187.184 33.7641 186.135 33.9411 184.937 33.9411C183.724 33.9411 182.648 33.6585 181.709 33.0932C180.769 32.5212 180.04 31.7108 179.523 30.662C179.012 29.6132 178.75 28.3976 178.736 27.0151V25.7178C178.736 23.4772 179.257 21.7406 180.299 20.5079C181.348 19.2753 182.819 18.6589 184.712 18.6589C186.265 18.6589 187.514 19.0573 188.461 19.8541C189.408 20.6441 189.986 21.7678 190.198 23.2252H188.236C187.869 21.2571 186.697 20.273 184.722 20.273C183.408 20.273 182.41 20.7361 181.729 21.6623C181.055 22.5816 180.714 23.9165 180.708 25.6667V26.8823C180.708 28.5508 181.089 29.8788 181.852 30.8663C182.614 31.847 183.646 32.3373 184.947 32.3373C185.682 32.3373 186.326 32.2556 186.878 32.0921C187.429 31.9287 187.886 31.6529 188.246 31.2647V27.9243H184.804V26.3307H190.198V31.7857ZM199.951 27.107C198.269 26.6235 197.043 26.031 196.274 25.3296C195.511 24.6213 195.13 23.7496 195.13 22.7144C195.13 21.5431 195.596 20.576 196.529 19.8133C197.469 19.0437 198.688 18.6589 200.186 18.6589C201.208 18.6589 202.117 18.8564 202.914 19.2514C203.717 19.6464 204.337 20.1913 204.773 20.8859C205.216 21.5805 205.437 22.3399 205.437 23.1639H203.465C203.465 22.265 203.179 21.5601 202.607 21.0493C202.035 20.5318 201.228 20.273 200.186 20.273C199.219 20.273 198.463 20.4875 197.918 20.9165C197.38 21.3388 197.111 21.9279 197.111 22.6838C197.111 23.2899 197.367 23.8041 197.878 24.2263C198.395 24.6417 199.27 25.0231 200.503 25.3704C201.742 25.7178 202.709 26.1025 203.404 26.5248C204.105 26.9402 204.623 27.4271 204.957 27.9856C205.297 28.544 205.468 29.2012 205.468 29.9571C205.468 31.1625 204.998 32.1296 204.058 32.8583C203.118 33.5802 201.861 33.9411 200.288 33.9411C199.267 33.9411 198.313 33.747 197.428 33.3588C196.543 32.9639 195.858 32.4258 195.375 31.7448C194.898 31.0638 194.66 30.2908 194.66 29.4259H196.631C196.631 30.3249 196.962 31.0366 197.622 31.5609C198.29 32.0785 199.178 32.3373 200.288 32.3373C201.323 32.3373 202.117 32.1262 202.669 31.704C203.22 31.2817 203.496 30.7063 203.496 29.9776C203.496 29.2489 203.241 28.687 202.73 28.292C202.219 27.8902 201.293 27.4952 199.951 27.107Z" fill="white"/>
</svg>
