<svg width="37" height="35" viewBox="0 0 37 35" fill="none" xmlns="http://www.w3.org/2000/svg">
<g clip-path="url(#clip0)">
<path d="M31.929 13.6663H31.4442C30.7439 11.8347 29.5527 10.1767 27.9546 8.83595C27.9546 8.82997 27.9546 8.82997 27.9546 8.82398C27.7152 7.99199 27.8947 7.10014 28.4753 6.17238C28.7746 5.69354 28.7926 5.11294 28.5172 4.62212C28.2479 4.13729 27.7391 3.83203 27.1884 3.83203C27.1226 3.83203 27.0568 3.83802 26.9969 3.844C24.7763 4.11934 23.4475 5.1309 22.6813 6.07063C21.3525 5.70551 19.9759 5.51996 18.5752 5.51996C14.9659 5.51996 11.5721 6.75298 9.01032 8.99158C6.42456 11.2541 5 14.2708 5 17.4851C5 18.3171 5.09577 19.1491 5.29329 19.9631C5.29329 19.9751 5.29928 19.993 5.30526 20.005C5.30526 20.005 5.31125 20.017 5.31723 20.0409C5.52074 20.8609 5.82002 21.663 6.20908 22.4232C6.84954 23.8178 7.62167 24.979 8.48958 25.8768C9.7226 27.1458 9.93209 28.7499 9.96202 29.3963V29.7136C9.96202 29.7315 9.96202 29.7495 9.96202 29.7734C9.96202 29.8033 9.96202 29.8333 9.96801 29.8572C10.0398 30.5934 10.6683 31.1621 11.4105 31.1621H15.8698C16.6658 31.1621 17.3183 30.5096 17.3183 29.7136V29.4143C18.0126 29.4682 18.7129 29.4801 19.4132 29.4442V29.7195C19.4132 30.5156 20.0656 31.168 20.8617 31.168H25.3209C26.117 31.168 26.7695 30.5156 26.7695 29.7195V28.6302C26.7754 28.3728 26.8772 27.1517 28.0324 26.0983C28.0863 26.0504 28.1461 26.0025 28.2 25.9546C28.206 25.9486 28.206 25.9486 28.212 25.9427C28.2239 25.9307 28.2419 25.9187 28.2539 25.9067C29.7503 24.566 30.8696 22.9319 31.516 21.1482H31.935C33.0722 21.1482 34 20.2205 34 19.0832V15.7553C33.994 14.5941 33.0663 13.6663 31.929 13.6663ZM32.5575 19.0593C32.5575 19.4064 32.2762 19.6878 31.929 19.6878H30.9953C30.678 19.6878 30.4027 19.8913 30.3069 20.1965C29.7742 21.9323 28.7207 23.5365 27.2663 24.8353C27.2603 24.8413 27.2603 24.8413 27.2543 24.8473L27.2483 24.8533C27.1944 24.9012 27.1406 24.9491 27.0867 24.9969C27.0807 25.0029 27.0747 25.0089 27.0687 25.0089C25.5005 26.4335 25.3389 28.1094 25.3269 28.5883C25.3269 28.5943 25.3269 28.6002 25.3269 28.6062V29.7076C25.3269 29.7136 25.3209 29.7195 25.315 29.7195H20.8557C20.8497 29.7195 20.8438 29.7136 20.8438 29.7076V28.6601C20.8438 28.4566 20.76 28.2651 20.6043 28.1274C20.4727 28.0077 20.2991 27.9418 20.1255 27.9418C20.1015 27.9418 20.0776 27.9418 20.0477 27.9478C19.5569 28.0017 19.0601 28.0256 18.5692 28.0256C17.9408 28.0256 17.3063 27.9837 16.6898 27.8999C16.4863 27.87 16.2768 27.9358 16.1212 28.0735C15.9655 28.2112 15.8757 28.4087 15.8757 28.6122V29.7076C15.8757 29.7136 15.8698 29.7195 15.8638 29.7195H11.4045C11.3986 29.7195 11.3926 29.7136 11.3926 29.7076V29.3724C11.3926 29.3604 11.3926 29.3484 11.3926 29.3425C11.3567 28.5404 11.1053 26.5053 9.51311 24.8712C8.75294 24.0871 8.07059 23.0576 7.48999 21.8066C7.484 21.7947 7.484 21.7887 7.47802 21.7827C7.13684 21.1123 6.86749 20.412 6.69391 19.6937C6.69391 19.6878 6.68793 19.6818 6.68793 19.6758C6.68793 19.6698 6.68793 19.6698 6.68793 19.6638C6.51434 18.9515 6.43055 18.2213 6.43055 17.497C6.43055 11.6911 11.8774 6.96247 18.5692 6.96247C19.9998 6.96247 21.3944 7.17795 22.7232 7.59694C23.0285 7.69271 23.3577 7.57899 23.5373 7.31562C24.07 6.52553 25.1294 5.53791 27.1645 5.28053C27.2124 5.27455 27.2423 5.30448 27.2543 5.32842C27.2782 5.37032 27.2603 5.40623 27.2483 5.4182C26.4522 6.68714 26.2188 8.00396 26.5659 9.22501C26.5659 9.231 26.5719 9.24297 26.5719 9.24896C26.5779 9.45845 26.6737 9.65597 26.8413 9.78766C28.4693 11.1045 29.6485 12.7744 30.253 14.618C30.3488 14.9113 30.6241 15.1148 30.9354 15.1148H30.9414H31.923C32.2702 15.1148 32.5515 15.3961 32.5515 15.7433V19.0593H32.5575Z" fill="black" stroke="#1D2632" stroke-width="0.5"/>
<path d="M16 11V11C17.9473 10.3509 20.0527 10.3509 22 11V11" stroke="#1D2632" stroke-width="1.5" stroke-linecap="round"/>
</g>
<path d="M6 18.0366C5.25171 17.5175 4.05187 16.9425 3 17.0046C2.09952 17.0578 1.30749 17.578 1 19" stroke="#1D2632" stroke-width="1.5"/>
<defs>
<clipPath id="clip0">
<rect width="34" height="29" fill="white" transform="translate(0 3)"/>
</clipPath>
</defs>
</svg>
