<svg width="35" height="35" viewBox="0 0 35 35" fill="none" xmlns="http://www.w3.org/2000/svg">
<path fill-rule="evenodd" clip-rule="evenodd" d="M25.521 6.5625C22.6772 6.5625 19.6147 7.14583 17.5002 8.75C15.3856 7.14583 12.3231 6.5625 9.47933 6.5625C7.36475 6.5625 5.11891 6.88333 3.23766 7.71458C2.17308 8.19583 1.4585 9.23125 1.4585 10.4125V26.8625C1.4585 28.7583 3.23766 30.1583 5.07516 29.6917C6.50433 29.3271 8.021 29.1667 9.47933 29.1667C11.7543 29.1667 14.1752 29.5458 16.1293 30.5083C17.0043 30.9458 17.996 30.9458 18.8564 30.5083C20.8106 29.5312 23.2314 29.1667 25.5064 29.1667C26.9647 29.1667 28.4814 29.3271 29.9106 29.6917C31.7481 30.1729 33.5272 28.7729 33.5272 26.8625V10.4125C33.5272 9.23125 32.8127 8.19583 31.7481 7.71458C29.8814 6.88333 27.6356 6.5625 25.521 6.5625ZM31.625 25.1479C31.625 26.0667 30.7792 26.7375 29.875 26.5771C28.7813 26.3729 27.6438 26.2854 26.5208 26.2854C24.0417 26.2854 20.4688 27.2333 18.5 28.4729V11.6875C20.4688 10.4479 24.0417 9.5 26.5208 9.5C27.8625 9.5 29.1896 9.63125 30.4583 9.90833C31.1292 10.0542 31.625 10.6521 31.625 11.3375V25.1479ZM3.375 25.1479C3.375 26.0667 4.22083 26.7375 5.125 26.5771C6.21875 26.3729 7.35625 26.2854 8.47917 26.2854C10.9583 26.2854 14.5312 27.2333 16.5 28.4729V11.6875C14.5312 10.4479 10.9583 9.5 8.47917 9.5C7.1375 9.5 5.81042 9.63125 4.54167 9.90833C3.87083 10.0542 3.375 10.6521 3.375 11.3375V25.1479Z" fill="#333333"/>
</svg>
