<svg width="35" height="35" viewBox="0 0 35 35" fill="none" xmlns="http://www.w3.org/2000/svg">
<path fill-rule="evenodd" clip-rule="evenodd" d="M24.5728 9.98958L26.6728 12.0896L19.5561 19.2063L14.7582 14.4083C14.1895 13.8396 13.2707 13.8396 12.702 14.4083L3.95195 23.1729C3.3832 23.7417 3.3832 24.6604 3.95195 25.2292C4.5207 25.7979 5.43945 25.7979 6.0082 25.2292L13.7228 17.5L18.5207 22.2979C19.0895 22.8667 20.0082 22.8667 20.577 22.2979L28.729 14.1604L30.829 16.2604C31.2811 16.7125 32.0686 16.3917 32.0686 15.75V9.47917C32.0832 9.07083 31.7624 8.75 31.354 8.75H25.0978C24.4415 8.75 24.1207 9.5375 24.5728 9.98958V9.98958Z" fill="#1D2632"/>
</svg>
