<svg width="37" height="37" viewBox="0 0 37 37" fill="none" xmlns="http://www.w3.org/2000/svg">
<path d="M30.9875 6.78333C30.0237 6.26657 24.0303 3.04017 20.7367 0.973717C20.1742 0.3774 19.3825 0 18.5 0C17.6175 0 16.8258 0.3774 16.2633 0.973717C12.9691 3.03955 6.97635 6.26657 6.0125 6.78333H0V37H37V6.78333H30.9875ZM19.8708 1.85247C19.8733 1.85555 19.8739 1.85925 19.877 1.86233C20.0269 2.03068 20.1921 2.28537 20.2822 2.6122C20.2896 2.63995 20.3019 2.66585 20.3081 2.69483C20.334 2.81447 20.35 2.94397 20.35 3.08333C20.35 4.1033 19.52 4.93333 18.5 4.93333C17.48 4.93333 16.65 4.1033 16.65 3.08333C16.65 2.94397 16.666 2.81447 16.6926 2.69483C16.6987 2.66647 16.7104 2.64118 16.7178 2.61343C16.8079 2.28537 16.9731 2.0313 17.123 1.86233C17.1255 1.85925 17.1261 1.85555 17.1292 1.85247C17.4683 1.47568 17.9543 1.23333 18.5 1.23333C19.0457 1.23333 19.5317 1.47568 19.8708 1.85247ZM15.4204 2.93163C15.4179 2.9822 15.4167 3.03277 15.4167 3.08333C15.4167 4.78348 16.7999 6.16667 18.5 6.16667C20.2001 6.16667 21.5833 4.78348 21.5833 3.08333C21.5833 3.03277 21.5821 2.9822 21.5796 2.93163C23.7953 4.24883 26.5345 5.76645 28.3981 6.78333H8.60188C10.4655 5.76645 13.2047 4.24883 15.4204 2.93163ZM6.16667 8.01667H30.8333H35.7667V11.1H1.23333V8.01667H6.16667ZM1.23333 35.7667V12.3333H35.7667V35.7667H1.23333Z" fill="#727171"/>
<path d="M14.1836 17.8834C14.5241 17.8834 14.8002 17.6073 14.8002 17.2667C14.8002 16.9261 14.5241 16.65 14.1836 16.65C13.843 16.65 13.5669 16.9261 13.5669 17.2667C13.5669 17.6073 13.843 17.8834 14.1836 17.8834Z" fill="#727171"/>
<path d="M18.5 17.8834C18.8405 17.8834 19.1166 17.6073 19.1166 17.2667C19.1166 16.9261 18.8405 16.65 18.5 16.65C18.1594 16.65 17.8833 16.9261 17.8833 17.2667C17.8833 17.6073 18.1594 17.8834 18.5 17.8834Z" fill="#727171"/>
<path d="M22.8169 17.8834C23.1574 17.8834 23.4335 17.6073 23.4335 17.2667C23.4335 16.9261 23.1574 16.65 22.8169 16.65C22.4763 16.65 22.2002 16.9261 22.2002 17.2667C22.2002 17.6073 22.4763 17.8834 22.8169 17.8834Z" fill="#727171"/>
<path d="M27.1333 17.8834C27.4738 17.8834 27.7499 17.6073 27.7499 17.2667C27.7499 16.9261 27.4738 16.65 27.1333 16.65C26.7927 16.65 26.5166 16.9261 26.5166 17.2667C26.5166 17.6073 26.7927 17.8834 27.1333 17.8834Z" fill="#727171"/>
<path d="M31.4502 17.8834C31.7907 17.8834 32.0668 17.6073 32.0668 17.2667C32.0668 16.9261 31.7907 16.65 31.4502 16.65C31.1096 16.65 30.8335 16.9261 30.8335 17.2667C30.8335 17.6073 31.1096 17.8834 31.4502 17.8834Z" fill="#727171"/>
<path d="M5.54977 22.8167C5.89035 22.8167 6.16644 22.5406 6.16644 22.2C6.16644 21.8595 5.89035 21.5834 5.54977 21.5834C5.2092 21.5834 4.93311 21.8595 4.93311 22.2C4.93311 22.5406 5.2092 22.8167 5.54977 22.8167Z" fill="#727171"/>
<path d="M9.86667 22.8167C10.2072 22.8167 10.4833 22.5406 10.4833 22.2C10.4833 21.8595 10.2072 21.5834 9.86667 21.5834C9.52609 21.5834 9.25 21.8595 9.25 22.2C9.25 22.5406 9.52609 22.8167 9.86667 22.8167Z" fill="#727171"/>
<path d="M14.1836 22.8167C14.5241 22.8167 14.8002 22.5406 14.8002 22.2C14.8002 21.8595 14.5241 21.5834 14.1836 21.5834C13.843 21.5834 13.5669 21.8595 13.5669 22.2C13.5669 22.5406 13.843 22.8167 14.1836 22.8167Z" fill="#727171"/>
<path d="M18.5 22.8167C18.8405 22.8167 19.1166 22.5406 19.1166 22.2C19.1166 21.8595 18.8405 21.5834 18.5 21.5834C18.1594 21.5834 17.8833 21.8595 17.8833 22.2C17.8833 22.5406 18.1594 22.8167 18.5 22.8167Z" fill="#727171"/>
<path d="M22.8169 22.8167C23.1574 22.8167 23.4335 22.5406 23.4335 22.2C23.4335 21.8595 23.1574 21.5834 22.8169 21.5834C22.4763 21.5834 22.2002 21.8595 22.2002 22.2C22.2002 22.5406 22.4763 22.8167 22.8169 22.8167Z" fill="#727171"/>
<path d="M27.1333 22.8167C27.4738 22.8167 27.7499 22.5406 27.7499 22.2C27.7499 21.8595 27.4738 21.5834 27.1333 21.5834C26.7927 21.5834 26.5166 21.8595 26.5166 22.2C26.5166 22.5406 26.7927 22.8167 27.1333 22.8167Z" fill="#727171"/>
<path d="M31.4502 22.8167C31.7907 22.8167 32.0668 22.5406 32.0668 22.2C32.0668 21.8595 31.7907 21.5834 31.4502 21.5834C31.1096 21.5834 30.8335 21.8595 30.8335 22.2C30.8335 22.5406 31.1096 22.8167 31.4502 22.8167Z" fill="#727171"/>
<path d="M5.54977 27.1334C5.89035 27.1334 6.16644 26.8573 6.16644 26.5167C6.16644 26.1761 5.89035 25.9 5.54977 25.9C5.2092 25.9 4.93311 26.1761 4.93311 26.5167C4.93311 26.8573 5.2092 27.1334 5.54977 27.1334Z" fill="#727171"/>
<path d="M9.86667 27.1334C10.2072 27.1334 10.4833 26.8573 10.4833 26.5167C10.4833 26.1761 10.2072 25.9 9.86667 25.9C9.52609 25.9 9.25 26.1761 9.25 26.5167C9.25 26.8573 9.52609 27.1334 9.86667 27.1334Z" fill="#727171"/>
<path d="M14.1836 27.1334C14.5241 27.1334 14.8002 26.8573 14.8002 26.5167C14.8002 26.1761 14.5241 25.9 14.1836 25.9C13.843 25.9 13.5669 26.1761 13.5669 26.5167C13.5669 26.8573 13.843 27.1334 14.1836 27.1334Z" fill="#727171"/>
<path d="M18.5 27.1334C18.8405 27.1334 19.1166 26.8573 19.1166 26.5167C19.1166 26.1761 18.8405 25.9 18.5 25.9C18.1594 25.9 17.8833 26.1761 17.8833 26.5167C17.8833 26.8573 18.1594 27.1334 18.5 27.1334Z" fill="#727171"/>
<path d="M22.8169 27.1334C23.1574 27.1334 23.4335 26.8573 23.4335 26.5167C23.4335 26.1761 23.1574 25.9 22.8169 25.9C22.4763 25.9 22.2002 26.1761 22.2002 26.5167C22.2002 26.8573 22.4763 27.1334 22.8169 27.1334Z" fill="#727171"/>
<path d="M27.1333 27.1334C27.4738 27.1334 27.7499 26.8573 27.7499 26.5167C27.7499 26.1761 27.4738 25.9 27.1333 25.9C26.7927 25.9 26.5166 26.1761 26.5166 26.5167C26.5166 26.8573 26.7927 27.1334 27.1333 27.1334Z" fill="#727171"/>
<path d="M31.4502 27.1334C31.7907 27.1334 32.0668 26.8573 32.0668 26.5167C32.0668 26.1761 31.7907 25.9 31.4502 25.9C31.1096 25.9 30.8335 26.1761 30.8335 26.5167C30.8335 26.8573 31.1096 27.1334 31.4502 27.1334Z" fill="#727171"/>
<path d="M5.54977 32.0667C5.89035 32.0667 6.16644 31.7906 6.16644 31.45C6.16644 31.1095 5.89035 30.8334 5.54977 30.8334C5.2092 30.8334 4.93311 31.1095 4.93311 31.45C4.93311 31.7906 5.2092 32.0667 5.54977 32.0667Z" fill="#727171"/>
<path d="M9.86667 32.0667C10.2072 32.0667 10.4833 31.7906 10.4833 31.45C10.4833 31.1095 10.2072 30.8334 9.86667 30.8334C9.52609 30.8334 9.25 31.1095 9.25 31.45C9.25 31.7906 9.52609 32.0667 9.86667 32.0667Z" fill="#727171"/>
<path d="M14.1836 32.0667C14.5241 32.0667 14.8002 31.7906 14.8002 31.45C14.8002 31.1095 14.5241 30.8334 14.1836 30.8334C13.843 30.8334 13.5669 31.1095 13.5669 31.45C13.5669 31.7906 13.843 32.0667 14.1836 32.0667Z" fill="#727171"/>
<path d="M18.5 32.0667C18.8405 32.0667 19.1166 31.7906 19.1166 31.45C19.1166 31.1095 18.8405 30.8334 18.5 30.8334C18.1594 30.8334 17.8833 31.1095 17.8833 31.45C17.8833 31.7906 18.1594 32.0667 18.5 32.0667Z" fill="#727171"/>
<path d="M22.8169 32.0667C23.1574 32.0667 23.4335 31.7906 23.4335 31.45C23.4335 31.1095 23.1574 30.8334 22.8169 30.8334C22.4763 30.8334 22.2002 31.1095 22.2002 31.45C22.2002 31.7906 22.4763 32.0667 22.8169 32.0667Z" fill="#727171"/>
</svg>
