<svg width="40" height="40" viewBox="0 0 40 40" fill="none" xmlns="http://www.w3.org/2000/svg">
<g clip-path="url(#clip0)">
<path d="M35.5122 7.39804L35.0462 6.82471L27.9448 13.9254L28.2562 14.3814C29.3868 16.042 29.9848 17.9854 29.9848 20.0007C29.9848 22.016 29.3875 23.9594 28.2562 25.62L27.9448 26.076L35.0455 33.1767L35.5115 32.6034C38.3955 29.054 39.9842 24.578 39.9842 20.0014C39.9842 15.4247 38.3962 10.9474 35.5122 7.39804ZM34.9328 31.1774L29.6595 25.904C30.7462 24.128 31.3182 22.0987 31.3182 20.0007C31.3182 17.9027 30.7462 15.8734 29.6595 14.0974L34.9328 8.82404C37.3355 12.0367 38.6515 15.9767 38.6515 20.0014C38.6515 24.026 37.3355 27.964 34.9328 31.1774Z" fill="#727171"/>
<path d="M25.6038 28.2714C23.9431 29.4027 21.9998 30 19.9845 30C15.1898 30 11.0605 26.5834 10.1665 21.8754L10.0638 21.3334H0.0151367L0.0904701 22.0687C1.14114 32.2914 9.6938 40 19.9845 40C24.5611 40 29.0371 38.4114 32.5865 35.5274L33.1598 35.0614L26.0591 27.96L25.6038 28.2714ZM19.9845 38.6667C10.6278 38.6667 2.81047 31.84 1.50714 22.6667H8.97314C10.1905 27.7207 14.7358 31.3334 19.9845 31.3334C22.0825 31.3334 24.1118 30.7614 25.8878 29.6747L31.1611 34.948C27.9485 37.3507 24.0085 38.6667 19.9845 38.6667Z" fill="#727171"/>
<path d="M10.1665 18.1247C11.0605 13.4167 15.1898 10 19.9845 10C21.9991 10 23.9425 10.5973 25.6038 11.7287L26.0598 12.04L33.1605 4.93867L32.5871 4.47267C29.0371 1.58867 24.5611 0 19.9845 0C9.6938 0 1.14114 7.70867 0.0904701 17.9313L0.0151367 18.6667H10.0638L10.1665 18.1247ZM5.98447 17.3333C5.98447 16.9653 5.6858 16.6667 5.3178 16.6667C4.9498 16.6667 4.65114 16.9653 4.65114 17.3333H1.98447C1.98447 17.0693 1.8278 16.846 1.6058 16.738C1.90047 15.0513 2.41714 13.4493 3.12314 11.9607C3.1858 11.98 3.24847 12 3.3178 12C3.6858 12 3.98447 11.7013 3.98447 11.3333C3.98447 11.1173 3.87514 10.934 3.7158 10.8127C4.00514 10.2987 4.31914 9.80067 4.6538 9.31933C4.6538 9.32467 4.65114 9.32867 4.65114 9.334C4.65114 9.702 4.9498 10.0007 5.3178 10.0007C5.6858 10.0007 5.98447 9.702 5.98447 9.334C5.98447 8.966 5.6858 8.66733 5.3178 8.66733C5.23847 8.66733 5.16447 8.68733 5.0938 8.71267C6.12514 7.35133 7.3378 6.14133 8.69514 5.11333C8.67114 5.182 8.65114 5.25533 8.65114 5.33333C8.65114 5.70133 8.9498 6 9.3178 6C9.6858 6 9.98447 5.70133 9.98447 5.33333C9.98447 4.96533 9.6858 4.66667 9.3178 4.66667C9.3138 4.66667 9.31047 4.66867 9.30714 4.66867C9.78847 4.334 10.2858 4.022 10.7985 3.73333C10.9205 3.89133 11.1025 4 11.3178 4C11.6858 4 11.9845 3.70133 11.9845 3.33333C11.9845 3.264 11.9645 3.20067 11.9451 3.13733C13.4398 2.428 15.0425 1.912 16.7211 1.618C16.8285 1.84267 17.0525 2 17.3178 2C17.6465 2 17.9071 1.758 17.9618 1.44533C18.6271 1.374 19.3011 1.33333 19.9845 1.33333C20.2091 1.33333 20.4325 1.35267 20.6565 1.36067C20.6718 1.71533 20.9591 2 21.3178 2C21.6438 2 21.9025 1.76133 21.9605 1.452C23.7091 1.63933 25.4198 2.06867 27.0405 2.73067C26.8118 2.83667 26.6511 3.06467 26.6511 3.33333C26.6511 3.70133 26.9498 4 27.3178 4C27.6858 4 27.9845 3.70133 27.9845 3.33333C27.9845 3.26333 27.9645 3.19933 27.9445 3.136C29.0731 3.668 30.1558 4.3 31.1611 5.052L25.8878 10.3253C25.6985 10.2093 25.5045 10.1027 25.3098 9.998C25.3125 9.998 25.3151 9.99933 25.3178 9.99933C25.6858 9.99933 25.9845 9.70067 25.9845 9.33267C25.9845 8.96467 25.6858 8.666 25.3178 8.666C24.9498 8.666 24.6511 8.96467 24.6511 9.33267C24.6511 9.49333 24.7151 9.63467 24.8098 9.75C23.8231 9.284 22.7778 8.96333 21.6971 8.79933C21.5878 8.722 21.4618 8.666 21.3178 8.666C21.2231 8.666 21.1345 8.68667 21.0531 8.722C20.6991 8.68933 20.3431 8.66667 19.9845 8.66667C19.2405 8.66667 18.5131 8.74667 17.8051 8.886C17.6831 8.75267 17.5125 8.66667 17.3178 8.66667C17.0085 8.66667 16.7598 8.882 16.6845 9.168C13.1218 10.256 10.2611 13.056 9.15514 16.6993C8.8678 16.7733 8.65114 17.0227 8.65114 17.3333H5.98447Z" fill="#727171"/>
<path d="M15.3175 3.99996C15.6857 3.99996 15.9842 3.70148 15.9842 3.33329C15.9842 2.9651 15.6857 2.66663 15.3175 2.66663C14.9494 2.66663 14.6509 2.9651 14.6509 3.33329C14.6509 3.70148 14.9494 3.99996 15.3175 3.99996Z" fill="#727171"/>
<path d="M19.3175 3.99996C19.6857 3.99996 19.9842 3.70148 19.9842 3.33329C19.9842 2.9651 19.6857 2.66663 19.3175 2.66663C18.9494 2.66663 18.6509 2.9651 18.6509 3.33329C18.6509 3.70148 18.9494 3.99996 19.3175 3.99996Z" fill="#727171"/>
<path d="M23.3175 3.99996C23.6857 3.99996 23.9842 3.70148 23.9842 3.33329C23.9842 2.9651 23.6857 2.66663 23.3175 2.66663C22.9494 2.66663 22.6509 2.9651 22.6509 3.33329C22.6509 3.70148 22.9494 3.99996 23.3175 3.99996Z" fill="#727171"/>
<path d="M15.3175 7.99996C15.6857 7.99996 15.9842 7.70148 15.9842 7.33329C15.9842 6.9651 15.6857 6.66663 15.3175 6.66663C14.9494 6.66663 14.6509 6.9651 14.6509 7.33329C14.6509 7.70148 14.9494 7.99996 15.3175 7.99996Z" fill="#727171"/>
<path d="M17.3175 5.99996C17.6857 5.99996 17.9842 5.70148 17.9842 5.33329C17.9842 4.9651 17.6857 4.66663 17.3175 4.66663C16.9494 4.66663 16.6509 4.9651 16.6509 5.33329C16.6509 5.70148 16.9494 5.99996 17.3175 5.99996Z" fill="#727171"/>
<path d="M19.3175 7.99996C19.6857 7.99996 19.9842 7.70148 19.9842 7.33329C19.9842 6.9651 19.6857 6.66663 19.3175 6.66663C18.9494 6.66663 18.6509 6.9651 18.6509 7.33329C18.6509 7.70148 18.9494 7.99996 19.3175 7.99996Z" fill="#727171"/>
<path d="M11.3175 7.99996C11.6857 7.99996 11.9842 7.70148 11.9842 7.33329C11.9842 6.9651 11.6857 6.66663 11.3175 6.66663C10.9494 6.66663 10.6509 6.9651 10.6509 7.33329C10.6509 7.70148 10.9494 7.99996 11.3175 7.99996Z" fill="#727171"/>
<path d="M13.3175 5.99996C13.6857 5.99996 13.9842 5.70148 13.9842 5.33329C13.9842 4.9651 13.6857 4.66663 13.3175 4.66663C12.9494 4.66663 12.6509 4.9651 12.6509 5.33329C12.6509 5.70148 12.9494 5.99996 13.3175 5.99996Z" fill="#727171"/>
<path d="M13.3175 9.99996C13.6857 9.99996 13.9842 9.70148 13.9842 9.33329C13.9842 8.9651 13.6857 8.66663 13.3175 8.66663C12.9494 8.66663 12.6509 8.9651 12.6509 9.33329C12.6509 9.70148 12.9494 9.99996 13.3175 9.99996Z" fill="#727171"/>
<path d="M7.31755 7.99996C7.68574 7.99996 7.98421 7.70148 7.98421 7.33329C7.98421 6.9651 7.68574 6.66663 7.31755 6.66663C6.94936 6.66663 6.65088 6.9651 6.65088 7.33329C6.65088 7.70148 6.94936 7.99996 7.31755 7.99996Z" fill="#727171"/>
<path d="M9.31755 9.99996C9.68574 9.99996 9.98421 9.70148 9.98421 9.33329C9.98421 8.9651 9.68574 8.66663 9.31755 8.66663C8.94936 8.66663 8.65088 8.9651 8.65088 9.33329C8.65088 9.70148 8.94936 9.99996 9.31755 9.99996Z" fill="#727171"/>
<path d="M21.3175 5.99996C21.6857 5.99996 21.9842 5.70148 21.9842 5.33329C21.9842 4.9651 21.6857 4.66663 21.3175 4.66663C20.9494 4.66663 20.6509 4.9651 20.6509 5.33329C20.6509 5.70148 20.9494 5.99996 21.3175 5.99996Z" fill="#727171"/>
<path d="M23.3175 7.99996C23.6857 7.99996 23.9842 7.70148 23.9842 7.33329C23.9842 6.9651 23.6857 6.66663 23.3175 6.66663C22.9494 6.66663 22.6509 6.9651 22.6509 7.33329C22.6509 7.70148 22.9494 7.99996 23.3175 7.99996Z" fill="#727171"/>
<path d="M27.3175 7.99996C27.6857 7.99996 27.9842 7.70148 27.9842 7.33329C27.9842 6.9651 27.6857 6.66663 27.3175 6.66663C26.9494 6.66663 26.6509 6.9651 26.6509 7.33329C26.6509 7.70148 26.9494 7.99996 27.3175 7.99996Z" fill="#727171"/>
<path d="M11.3175 12C11.6857 12 11.9842 11.7015 11.9842 11.3333C11.9842 10.9651 11.6857 10.6666 11.3175 10.6666C10.9494 10.6666 10.6509 10.9651 10.6509 11.3333C10.6509 11.7015 10.9494 12 11.3175 12Z" fill="#727171"/>
<path d="M7.31755 12C7.68574 12 7.98421 11.7015 7.98421 11.3333C7.98421 10.9651 7.68574 10.6666 7.31755 10.6666C6.94936 10.6666 6.65088 10.9651 6.65088 11.3333C6.65088 11.7015 6.94936 12 7.31755 12Z" fill="#727171"/>
<path d="M25.3175 5.99996C25.6857 5.99996 25.9842 5.70148 25.9842 5.33329C25.9842 4.9651 25.6857 4.66663 25.3175 4.66663C24.9494 4.66663 24.6509 4.9651 24.6509 5.33329C24.6509 5.70148 24.9494 5.99996 25.3175 5.99996Z" fill="#727171"/>
<path d="M29.3175 5.99996C29.6857 5.99996 29.9842 5.70148 29.9842 5.33329C29.9842 4.9651 29.6857 4.66663 29.3175 4.66663C28.9494 4.66663 28.6509 4.9651 28.6509 5.33329C28.6509 5.70148 28.9494 5.99996 29.3175 5.99996Z" fill="#727171"/>
<path d="M3.31755 16C3.68574 16 3.98421 15.7015 3.98421 15.3333C3.98421 14.9651 3.68574 14.6666 3.31755 14.6666C2.94936 14.6666 2.65088 14.9651 2.65088 15.3333C2.65088 15.7015 2.94936 16 3.31755 16Z" fill="#727171"/>
<path d="M7.31755 16C7.68574 16 7.98421 15.7015 7.98421 15.3333C7.98421 14.9651 7.68574 14.6666 7.31755 14.6666C6.94936 14.6666 6.65088 14.9651 6.65088 15.3333C6.65088 15.7015 6.94936 16 7.31755 16Z" fill="#727171"/>
<path d="M5.31755 14C5.68574 14 5.98421 13.7015 5.98421 13.3333C5.98421 12.9651 5.68574 12.6666 5.31755 12.6666C4.94936 12.6666 4.65088 12.9651 4.65088 13.3333C4.65088 13.7015 4.94936 14 5.31755 14Z" fill="#727171"/>
<path d="M9.31755 14C9.68574 14 9.98421 13.7015 9.98421 13.3333C9.98421 12.9651 9.68574 12.6666 9.31755 12.6666C8.94936 12.6666 8.65088 12.9651 8.65088 13.3333C8.65088 13.7015 8.94936 14 9.31755 14Z" fill="#727171"/>
</g>
<defs>
<clipPath id="clip0">
<rect width="40" height="40" fill="white"/>
</clipPath>
</defs>
</svg>
