<svg width="48" height="48" viewBox="0 0 48 48" fill="none" xmlns="http://www.w3.org/2000/svg">
<g clip-path="url(#clip0)">
<path d="M41.3654 0.347061V0.342959C41.0986 -0.0233877 40.5855 -0.104103 40.2192 0.162657C39.8573 0.426135 39.7734 0.930836 40.0305 1.29729C44.9118 8.12967 44.9118 17.3088 40.0305 24.1412C39.7656 24.509 39.8491 25.0217 40.2169 25.2865C40.2184 25.2876 40.2201 25.2888 40.2217 25.2899C40.5902 25.5529 41.102 25.4676 41.3655 25.0995C46.6547 17.6964 46.6547 7.75019 41.3654 0.347061Z" fill="black"/>
<path d="M7.77836 0.152649C7.77836 0.152649 7.77825 0.152649 7.77825 0.152546C7.40975 -0.110419 6.89798 -0.0251913 6.6345 0.342899C1.34514 7.74603 1.34514 17.6922 6.6345 25.0953C6.90126 25.4616 7.41437 25.5423 7.78072 25.2756C8.14255 25.0121 8.22644 24.5074 7.96943 24.1411C3.08806 17.3087 3.08806 8.1295 7.96943 1.29712C8.2327 0.928315 8.14717 0.415922 7.77836 0.152649Z" fill="black"/>
<path d="M12.9964 4.17469C13.274 3.81655 13.2086 3.30108 12.8504 3.02355C12.4935 2.74694 11.9801 2.81074 11.7017 3.16631C7.31818 8.78058 7.31818 16.6579 11.7017 22.2721C11.9802 22.6297 12.4957 22.6938 12.8533 22.4153C13.2108 22.1368 13.2749 21.6213 12.9964 21.2637C9.07453 16.2425 9.07453 9.19606 12.9964 4.17469Z" fill="black"/>
<path d="M35.1498 3.02339L35.1497 3.02349C34.7941 3.30184 34.7303 3.81526 35.007 4.17217C38.929 9.19344 38.929 16.24 35.007 21.2612C34.7285 21.6188 34.7926 22.1343 35.1501 22.4128C35.5077 22.6912 36.0232 22.6271 36.3017 22.2696C40.6852 16.6553 40.6852 8.77807 36.3017 3.1638C36.0223 2.80699 35.5066 2.74412 35.1498 3.02339Z" fill="black"/>
<path d="M29.973 7.10623C32.9486 10.2567 32.9486 15.1816 29.973 18.3321C29.6624 18.662 29.6781 19.1813 30.0079 19.492C30.008 19.4921 30.0081 19.4922 30.0083 19.4923C30.3384 19.8027 30.8577 19.7867 31.1681 19.4566C31.1682 19.4565 31.1683 19.4563 31.1685 19.4562C34.738 15.674 34.738 9.76429 31.1685 5.98216C30.8607 5.64956 30.3415 5.62956 30.009 5.93735C29.6764 6.24513 29.6564 6.76429 29.9642 7.09679C29.9671 7.09997 29.97 7.10315 29.973 7.10623Z" fill="black"/>
<path d="M17.4287 19.7146C17.8819 19.7148 18.2494 19.3477 18.2496 18.8946C18.2497 18.6855 18.1701 18.4844 18.0269 18.3321C15.0513 15.1817 15.0513 10.2567 18.0269 7.10625C18.3399 6.77857 18.328 6.2592 18.0003 5.94619C17.6726 5.63318 17.1533 5.64507 16.8403 5.97275C16.8373 5.97583 16.8343 5.97901 16.8314 5.98219C13.2619 9.76432 13.2619 15.6741 16.8314 19.4562C16.9864 19.621 17.2025 19.7145 17.4287 19.7146Z" fill="black"/>
<path d="M34.6416 46.9752L26.6526 15.8223C28.3809 14.3573 28.5944 11.7685 27.1294 10.0402C25.6644 8.31184 23.0757 8.09841 21.3473 9.56339C19.619 11.0284 19.4055 13.6171 20.8705 15.3454C21.0161 15.5172 21.1755 15.6767 21.3473 15.8223L13.3591 46.9752C13.2462 47.4141 13.5105 47.8614 13.9493 47.9743C13.9497 47.9744 13.9502 47.9745 13.9507 47.9746C14.0172 47.9914 14.0855 47.9999 14.1541 48C14.5285 47.9998 14.8551 47.7464 14.9484 47.3838L15.2224 46.3172C15.2684 46.3042 15.3131 46.2872 15.3561 46.2663L30.6935 38.1936L33.0499 47.383C33.1429 47.7465 33.4706 48.0005 33.8458 48C33.9147 48 33.9833 47.9915 34.0501 47.9746C34.4891 47.8625 34.7541 47.4156 34.6419 46.9766C34.6418 46.9762 34.6417 46.9758 34.6416 46.9752ZM26.7313 22.7373L22.2695 18.8326L22.834 16.6321C23.2113 16.7522 23.6041 16.816 24 16.8216C24.3957 16.816 24.7886 16.7522 25.1659 16.6321L26.7313 22.7373ZM24 10.2577C25.3594 10.2577 26.4614 11.3597 26.4614 12.7192C26.4614 14.0786 25.3594 15.1806 24 15.1806C22.6405 15.1806 21.5385 14.0786 21.5385 12.7192C21.5385 11.3597 22.6405 10.2577 24 10.2577ZM21.8134 20.6131L26.7551 24.9387L19.4528 29.8041L21.8134 20.6131ZM15.7664 44.1946L18.7119 32.7078L28.7218 37.378L15.7664 44.1946ZM19.9254 31.464L27.6486 26.3146L30.1979 36.2572L19.9254 31.464Z" fill="black"/>
</g>
<defs>
<clipPath id="clip0">
<rect width="48" height="48" fill="white"/>
</clipPath>
</defs>
</svg>
