<svg width="153" height="18" viewBox="0 0 153 18" fill="none" xmlns="http://www.w3.org/2000/svg">
<path d="M3.08203 1.92188V11.0039C3.08203 12.2995 3.29362 13.2467 3.7168 13.8457C4.34831 14.7116 5.23698 15.1445 6.38281 15.1445C7.53516 15.1445 8.42708 14.7116 9.05859 13.8457C9.48177 13.2663 9.69336 12.319 9.69336 11.0039V1.92188H11.9688V11.6289C11.9688 13.2174 11.474 14.526 10.4844 15.5547C9.37109 16.7005 8.00391 17.2734 6.38281 17.2734C4.76172 17.2734 3.39779 16.7005 2.29102 15.5547C1.30143 14.526 0.806641 13.2174 0.806641 11.6289V1.92188H3.08203ZM20.2672 10.877V17H17.9918V1.92188H20.5699C21.8329 1.92188 22.7867 2.00977 23.4312 2.18555C24.0823 2.36133 24.6552 2.69336 25.15 3.18164C26.0159 4.02799 26.4488 5.0957 26.4488 6.38477C26.4488 7.76497 25.9866 8.85872 25.0621 9.66602C24.1376 10.4733 22.8909 10.877 21.3219 10.877H20.2672ZM20.2672 8.76758H21.1168C23.2066 8.76758 24.2516 7.96354 24.2516 6.35547C24.2516 4.79948 23.1741 4.02148 21.0191 4.02148H20.2672V8.76758ZM33.468 7.82031H39.9719V1.92188H42.2473V17H39.9719V9.95898H33.468V17H31.1926V1.92188H33.468V7.82031ZM47.5086 9.39258C47.5086 7.27018 48.2866 5.44727 49.8426 3.92383C51.3921 2.40039 53.254 1.63867 55.4285 1.63867C57.577 1.63867 59.4194 2.4069 60.9559 3.94336C62.4988 5.47982 63.2703 7.32552 63.2703 9.48047C63.2703 11.6484 62.4956 13.4876 60.9461 14.998C59.3901 16.515 57.5118 17.2734 55.3113 17.2734C53.3647 17.2734 51.6167 16.5996 50.0672 15.252C48.3615 13.7611 47.5086 11.8079 47.5086 9.39258ZM49.8035 9.42188C49.8035 11.0885 50.3634 12.459 51.4832 13.5332C52.5965 14.6074 53.8823 15.1445 55.3406 15.1445C56.9227 15.1445 58.2573 14.5977 59.3445 13.5039C60.4318 12.3971 60.9754 11.0495 60.9754 9.46094C60.9754 7.85286 60.4383 6.50521 59.3641 5.41797C58.2964 4.32422 56.9747 3.77734 55.3992 3.77734C53.8302 3.77734 52.5053 4.32422 51.4246 5.41797C50.3439 6.4987 49.8035 7.83333 49.8035 9.42188ZM70.807 1.92188V14.8613H75.2406V17H68.5316V1.92188H70.807ZM79.7988 17V1.92188H82.9629C84.4798 1.92188 85.6777 2.07161 86.5566 2.37109C87.5007 2.66406 88.3568 3.16211 89.125 3.86523C90.681 5.28451 91.459 7.14974 91.459 9.46094C91.459 11.7786 90.6484 13.6536 89.0273 15.0859C88.2135 15.8021 87.3607 16.3001 86.4688 16.5801C85.6354 16.86 84.4538 17 82.9238 17H79.7988ZM82.0742 14.8613H83.0996C84.1217 14.8613 84.9714 14.7539 85.6484 14.5391C86.3255 14.3112 86.9375 13.9499 87.4844 13.4551C88.6042 12.4329 89.1641 11.1016 89.1641 9.46094C89.1641 7.80729 88.6107 6.46615 87.5039 5.4375C86.5078 4.51953 85.0397 4.06055 83.0996 4.06055H82.0742V14.8613ZM99.0055 1.92188V17H96.7301V1.92188H99.0055ZM105.029 17V0.896484L116.025 12.4004V1.92188H118.3V17.918L107.304 6.44336V17H105.029ZM132.233 9.14844H138.464V9.64648C138.464 10.7793 138.33 11.7819 138.063 12.6543C137.803 13.4616 137.363 14.2168 136.745 14.9199C135.345 16.4954 133.565 17.2832 131.403 17.2832C129.294 17.2832 127.487 16.5215 125.983 14.998C124.479 13.4681 123.727 11.6322 123.727 9.49023C123.727 7.30273 124.492 5.44727 126.022 3.92383C127.552 2.39388 129.414 1.62891 131.608 1.62891C132.787 1.62891 133.887 1.86979 134.909 2.35156C135.886 2.83333 136.846 3.61458 137.79 4.69531L136.169 6.24805C134.932 4.60091 133.425 3.77734 131.647 3.77734C130.052 3.77734 128.714 4.32747 127.634 5.42773C126.553 6.50846 126.012 7.86263 126.012 9.49023C126.012 11.1699 126.615 12.5534 127.819 13.6406C128.945 14.6497 130.166 15.1543 131.481 15.1543C132.601 15.1543 133.607 14.7767 134.499 14.0215C135.391 13.2598 135.889 12.3483 135.993 11.2871H132.233V9.14844ZM152.26 4.16797L150.414 5.26172C150.069 4.66276 149.741 4.27214 149.428 4.08984C149.103 3.88151 148.683 3.77734 148.168 3.77734C147.537 3.77734 147.013 3.95638 146.596 4.31445C146.179 4.66602 145.971 5.10872 145.971 5.64258C145.971 6.37826 146.518 6.9707 147.612 7.41992L149.116 8.03516C150.34 8.52995 151.235 9.13542 151.801 9.85156C152.368 10.5612 152.651 11.4336 152.651 12.4688C152.651 13.8555 152.189 15.0013 151.264 15.9062C150.333 16.8177 149.177 17.2734 147.797 17.2734C146.489 17.2734 145.408 16.8861 144.555 16.1113C143.715 15.3366 143.191 14.2461 142.983 12.8398L145.288 12.332C145.392 13.2174 145.574 13.8294 145.834 14.168C146.303 14.819 146.987 15.1445 147.885 15.1445C148.595 15.1445 149.184 14.9069 149.653 14.4316C150.121 13.9564 150.356 13.3542 150.356 12.625C150.356 12.332 150.314 12.0651 150.229 11.8242C150.151 11.5768 150.024 11.3522 149.848 11.1504C149.679 10.9421 149.457 10.75 149.184 10.5742C148.911 10.3919 148.585 10.2194 148.207 10.0566L146.752 9.45117C144.689 8.57878 143.657 7.30273 143.657 5.62305C143.657 4.49023 144.09 3.54297 144.955 2.78125C145.821 2.01302 146.899 1.62891 148.188 1.62891C149.926 1.62891 151.284 2.47526 152.26 4.16797Z" fill="#1D2632"/>
</svg>
