<svg width="148" height="38" viewBox="0 0 148 38" fill="none" xmlns="http://www.w3.org/2000/svg">
<path fill-rule="evenodd" clip-rule="evenodd" d="M18.8063 3.87769C10.5614 3.87769 3.87769 10.5614 3.87769 18.8063C3.87769 27.0511 10.5614 33.7348 18.8063 33.7348C27.0511 33.7348 33.7348 27.0511 33.7348 18.8063C33.7348 10.5614 27.0511 3.87769 18.8063 3.87769ZM24.3956 23.1046L22.4376 25.0627V16.5184L13.7153 25.2407L12.2912 23.8167L21.0135 15.0944H12.4693L14.4273 13.1363L24.3956 13.1363V23.1046Z" fill="black"/>
<path d="M51.0234 13.3359V20.3599C51.0234 21.5269 50.6572 22.4497 49.9248 23.1284C49.1973 23.8071 48.2012 24.1465 46.9365 24.1465C45.6914 24.1465 44.7026 23.8169 43.9702 23.1577C43.2378 22.4985 42.8643 21.5928 42.8496 20.4404V13.3359H45.0469V20.3745C45.0469 21.0728 45.2129 21.583 45.5449 21.9053C45.8818 22.2227 46.3457 22.3813 46.9365 22.3813C48.1719 22.3813 48.7993 21.7319 48.8188 20.4331V13.3359H51.0234ZM56.5225 20.2427V24H54.3252V13.3359H58.4854C59.2861 13.3359 59.9893 13.4824 60.5947 13.7754C61.2051 14.0684 61.6738 14.4858 62.001 15.0278C62.3281 15.5649 62.4917 16.1777 62.4917 16.8662C62.4917 17.9111 62.1328 18.7363 61.415 19.3418C60.7021 19.9424 59.7134 20.2427 58.4487 20.2427H56.5225ZM56.5225 18.4629H58.4854C59.0664 18.4629 59.5083 18.3262 59.811 18.0527C60.1187 17.7793 60.2725 17.3887 60.2725 16.8809C60.2725 16.3584 60.1187 15.936 59.811 15.6138C59.5034 15.2915 59.0786 15.1255 58.5366 15.1157H56.5225V18.4629ZM73.9893 24H72.5757V19.0708H67.1997V24H65.7935V13.3359H67.1997V17.9209H72.5757V13.3359H73.9893V24ZM86.1899 19.0122C86.1899 20.0571 86.0142 20.9702 85.6626 21.7515C85.311 22.5278 84.813 23.1211 84.1685 23.5312C83.5239 23.9414 82.772 24.1465 81.9126 24.1465C81.0728 24.1465 80.3281 23.9414 79.6787 23.5312C79.0293 23.1162 78.5239 22.5278 78.1626 21.7661C77.8062 20.9995 77.623 20.1133 77.6133 19.1074V18.3384C77.6133 17.313 77.7915 16.4072 78.1479 15.6211C78.5044 14.835 79.0073 14.2344 79.6567 13.8193C80.311 13.3994 81.0581 13.1895 81.8979 13.1895C82.7524 13.1895 83.5044 13.397 84.1538 13.812C84.8081 14.2222 85.311 14.8203 85.6626 15.6064C86.0142 16.3877 86.1899 17.2983 86.1899 18.3384V19.0122ZM84.791 18.3237C84.791 17.0591 84.5371 16.0898 84.0293 15.416C83.5215 14.7373 82.811 14.3979 81.8979 14.3979C81.0093 14.3979 80.3086 14.7373 79.7959 15.416C79.2881 16.0898 79.0269 17.0273 79.0122 18.2285V19.0122C79.0122 20.2378 79.2686 21.2021 79.7812 21.9053C80.2988 22.6035 81.0093 22.9526 81.9126 22.9526C82.8208 22.9526 83.5239 22.623 84.022 21.9639C84.52 21.2998 84.7764 20.3501 84.791 19.1147V18.3237ZM91.2129 22.8501H96.2666V24H89.7993V13.3359H91.2129V22.8501ZM99.3706 24V13.3359H102.381C103.309 13.3359 104.129 13.541 104.842 13.9512C105.555 14.3613 106.104 14.9448 106.49 15.7017C106.88 16.4585 107.078 17.3276 107.083 18.3091V18.9902C107.083 19.9961 106.888 20.8774 106.497 21.6343C106.111 22.3911 105.557 22.9722 104.834 23.3774C104.117 23.7827 103.279 23.9902 102.322 24H99.3706ZM100.777 14.4932V22.8501H102.256C103.34 22.8501 104.183 22.5132 104.783 21.8394C105.389 21.1655 105.691 20.2061 105.691 18.9609V18.3384C105.691 17.1274 105.406 16.1875 104.834 15.5186C104.268 14.8447 103.462 14.5029 102.417 14.4932H100.777ZM112.223 24H110.817V13.3359H112.223V24ZM124.497 24H123.083L117.715 15.7822V24H116.301V13.3359H117.715L123.098 21.5903V13.3359H124.497V24ZM136.368 22.6011C136.007 23.1187 135.501 23.5068 134.852 23.7656C134.208 24.0195 133.456 24.1465 132.596 24.1465C131.727 24.1465 130.956 23.9438 130.282 23.5386C129.608 23.1284 129.085 22.5474 128.714 21.7954C128.348 21.0435 128.16 20.1719 128.15 19.1807V18.2505C128.15 16.644 128.524 15.3989 129.271 14.5151C130.023 13.6313 131.078 13.1895 132.435 13.1895C133.548 13.1895 134.444 13.4751 135.123 14.0464C135.802 14.6128 136.217 15.4185 136.368 16.4634H134.962C134.698 15.0522 133.858 14.3467 132.442 14.3467C131.5 14.3467 130.785 14.6787 130.296 15.3428C129.813 16.002 129.569 16.959 129.564 18.2139V19.0854C129.564 20.2817 129.837 21.2339 130.384 21.9419C130.931 22.645 131.671 22.9966 132.604 22.9966C133.131 22.9966 133.592 22.938 133.988 22.8208C134.383 22.7036 134.71 22.5059 134.969 22.2275V19.8325H132.501V18.6899H136.368V22.6011ZM143.361 19.2466C142.155 18.8999 141.276 18.4751 140.725 17.9722C140.178 17.4644 139.904 16.8394 139.904 16.0972C139.904 15.2573 140.239 14.564 140.908 14.0171C141.582 13.4653 142.456 13.1895 143.53 13.1895C144.262 13.1895 144.914 13.3311 145.485 13.6143C146.062 13.8975 146.506 14.2881 146.818 14.7861C147.136 15.2842 147.294 15.8286 147.294 16.4194H145.881C145.881 15.7749 145.676 15.2695 145.266 14.9033C144.855 14.5322 144.277 14.3467 143.53 14.3467C142.836 14.3467 142.294 14.5005 141.904 14.8081C141.518 15.1108 141.325 15.5332 141.325 16.0752C141.325 16.5098 141.508 16.8784 141.875 17.1812C142.246 17.479 142.873 17.7524 143.757 18.0015C144.646 18.2505 145.339 18.5264 145.837 18.8291C146.34 19.127 146.711 19.4761 146.95 19.8765C147.194 20.2769 147.316 20.748 147.316 21.29C147.316 22.1543 146.979 22.8477 146.306 23.3701C145.632 23.8877 144.731 24.1465 143.603 24.1465C142.871 24.1465 142.187 24.0073 141.552 23.729C140.917 23.4458 140.427 23.0601 140.08 22.5718C139.738 22.0835 139.567 21.5293 139.567 20.9092H140.981C140.981 21.5537 141.218 22.064 141.691 22.4399C142.17 22.811 142.807 22.9966 143.603 22.9966C144.345 22.9966 144.914 22.8452 145.31 22.5425C145.705 22.2397 145.903 21.8271 145.903 21.3047C145.903 20.7822 145.72 20.3794 145.354 20.0962C144.987 19.8081 144.323 19.5249 143.361 19.2466Z" fill="black"/>
</svg>
